<svg xmlns="http://www.w3.org/2000/svg" xmlns:xlink="http://www.w3.org/1999/xlink" viewBox="0 0 751.28 649"><defs><style>.cls-1{fill:none;}.cls-2{isolation:isolate;}.cls-3{opacity:0.7;}.cls-3,.cls-32,.cls-62{mix-blend-mode:multiply;}.cls-4,.cls-83{fill:#fff;}.cls-4{opacity:0;}.cls-5{fill:#fdfdfd;opacity:0.04;}.cls-6{fill:#fbfbfb;opacity:0.08;}.cls-7{fill:#f9f9f9;opacity:0.12;}.cls-46,.cls-8{fill:#f7f7f7;}.cls-8{opacity:0.15;}.cls-9{fill:#f5f5f5;opacity:0.19;}.cls-10{fill:#f3f3f3;opacity:0.23;}.cls-11{fill:#f1f1f1;opacity:0.27;}.cls-12{fill:#efefef;opacity:0.31;}.cls-13,.cls-45{fill:#ededed;}.cls-13{opacity:0.35;}.cls-14{fill:#ebebeb;opacity:0.38;}.cls-15{fill:#e9e9e9;opacity:0.42;}.cls-16{fill:#e7e7e7;opacity:0.46;}.cls-17{fill:#e6e5e5;opacity:0.5;}.cls-18{fill:#e4e3e2;opacity:0.54;}.cls-19{fill:#e2e1e0;opacity:0.58;}.cls-20{fill:#e0dfde;opacity:0.62;}.cls-21{fill:#dedddc;opacity:0.65;}.cls-22{fill:#dcdbda;opacity:0.69;}.cls-23{fill:#dad9d8;opacity:0.73;}.cls-24{fill:#d8d7d6;opacity:0.77;}.cls-25{fill:#d6d5d4;opacity:0.81;}.cls-26{fill:#d4d3d2;opacity:0.85;}.cls-27{fill:#d2d1d0;opacity:0.88;}.cls-28{fill:#d0cfce;opacity:0.92;}.cls-29{fill:#cecdcc;opacity:0.96;}.cls-30{fill:#cccbca;}.cls-31{fill:#4f3b3b;}.cls-32{fill:#594d4d;}.cls-32,.cls-48{opacity:0.4;}.cls-33{fill:#302524;}.cls-34{fill:#3f322f;}.cls-35{fill:#deded9;}.cls-36,.cls-65{fill:#4f403c;}.cls-37{fill:#dad5cc;}.cls-38{fill:#c9c0b6;}.cls-39{fill:#beb7ae;}.cls-40{fill:#ffc424;}.cls-41{fill:#df9c00;}.cls-42{fill:#433833;}.cls-43{fill:url(#Áåçûìÿííûé_ãðàäèåíò_140);}.cls-44{fill:#dbd6ce;}.cls-47{fill:#cfcfcf;}.cls-48{fill:#5cb1e5;}.cls-49{fill:#96928d;}.cls-50{fill:#b8b4b0;}.cls-51{fill:#ccc7c2;}.cls-52{fill:#ffd427;}.cls-53{fill:#2a2122;}.cls-54{clip-path:url(#clip-path);}.cls-55{fill:#3f3835;}.cls-56{fill:#eeb211;}.cls-57,.cls-63{fill:#d89000;}.cls-58{fill:#705858;}.cls-58,.cls-63,.cls-65{opacity:0.5;}.cls-59{fill:#cd9305;}.cls-60{fill:#c3e3ed;}.cls-61{fill:#dd740b;}.cls-62{fill:#bc8e28;opacity:0.3;}.cls-64{fill:url(#Áåçûìÿííûé_ãðàäèåíò_140-2);}.cls-66{fill:#ba5a0c;}.cls-67{fill:#fcbe9f;}.cls-68{fill:#5e5060;}.cls-69{fill:#3b303d;}.cls-70{fill:#282833;}.cls-71{fill:#191926;}.cls-72{fill:#4c439b;}.cls-73{fill:#ffdb27;}.cls-74{fill:#6c69cd;}.cls-75{fill:#f1a782;}.cls-76{fill:#ffef5f;}.cls-77{fill:#3a2c28;}.cls-78{fill:#46434c;}.cls-79{fill:#37343d;}.cls-80{fill:#85818d;}.cls-81{fill:#7a7683;}.cls-82{fill:#dbdbdb;}.cls-84{fill:#397ad8;}.cls-85{fill:#99655b;}</style><linearGradient id="Áåçûìÿííûé_ãðàäèåíò_140" x1="403.54" y1="218.67" x2="422.82" y2="252.08" gradientUnits="userSpaceOnUse"><stop offset="0" stop-color="#614f4a"/><stop offset="1" stop-color="#564641"/></linearGradient><clipPath id="clip-path" transform="translate(-64.84 -36)"><path class="cls-1" d="M696.5,346.06l-31.16-66.71c-.13.09-113.7,66-113.7,66l26.27,69.57C618.13,398.12,670.45,367.91,696.5,346.06Z"/></clipPath><linearGradient id="Áåçûìÿííûé_ãðàäèåíò_140-2" x1="294.89" y1="281.4" x2="314.18" y2="314.81" xlink:href="#Áåçûìÿííûé_ãðàäèåíò_140"/></defs><g class="cls-2"><g id="Layer_1" data-name="Layer 1"><g class="cls-3"><ellipse class="cls-4" cx="375.64" cy="432.12" rx="375.64" ry="216.88"/><ellipse class="cls-5" cx="375.64" cy="431.82" rx="373.51" ry="215.65"/><ellipse class="cls-6" cx="375.64" cy="431.53" rx="371.38" ry="214.42"/><ellipse class="cls-7" cx="375.64" cy="431.23" rx="369.25" ry="213.19"/><ellipse class="cls-8" cx="375.64" cy="430.94" rx="367.12" ry="211.96"/><ellipse class="cls-9" cx="375.64" cy="430.64" rx="364.99" ry="210.73"/><ellipse class="cls-10" cx="375.64" cy="430.35" rx="362.86" ry="209.5"/><ellipse class="cls-11" cx="375.64" cy="430.05" rx="360.73" ry="208.27"/><ellipse class="cls-12" cx="375.64" cy="429.76" rx="358.6" ry="207.04"/><ellipse class="cls-13" cx="375.64" cy="429.46" rx="356.47" ry="205.81"/><ellipse class="cls-14" cx="375.64" cy="429.16" rx="354.34" ry="204.58"/><ellipse class="cls-15" cx="375.64" cy="428.87" rx="352.21" ry="203.35"/><ellipse class="cls-16" cx="375.64" cy="428.57" rx="350.08" ry="202.12"/><ellipse class="cls-17" cx="375.64" cy="428.28" rx="347.95" ry="200.89"/><ellipse class="cls-18" cx="375.64" cy="427.98" rx="345.82" ry="199.66"/><ellipse class="cls-19" cx="375.64" cy="427.69" rx="343.69" ry="198.43"/><ellipse class="cls-20" cx="375.64" cy="427.39" rx="341.56" ry="197.2"/><ellipse class="cls-21" cx="375.64" cy="427.09" rx="339.43" ry="195.97"/><ellipse class="cls-22" cx="375.64" cy="426.8" rx="337.3" ry="194.74"/><ellipse class="cls-23" cx="375.64" cy="426.5" rx="335.17" ry="193.51"/><ellipse class="cls-24" cx="375.64" cy="426.21" rx="333.04" ry="192.28"/><ellipse class="cls-25" cx="375.64" cy="425.91" rx="330.91" ry="191.05"/><ellipse class="cls-26" cx="375.64" cy="425.62" rx="328.78" ry="189.82"/><ellipse class="cls-27" cx="375.64" cy="425.32" rx="326.65" ry="188.59"/><ellipse class="cls-28" cx="375.64" cy="425.03" rx="324.52" ry="187.36"/><ellipse class="cls-29" cx="375.64" cy="424.73" rx="322.39" ry="186.13"/><ellipse class="cls-30" cx="375.64" cy="424.43" rx="320.26" ry="184.9"/></g><path class="cls-31" d="M349.23,207.34c-58.88,9-114.57,26.72-160.73,53.37-139.16,80.35-139.16,210.62,0,291s364.79,80.34,504,0c46.16-26.66,76.91-58.81,92.45-92.8Z" transform="translate(-64.84 -36)"/><g id="_6" data-name="6"><polygon class="cls-32" points="446.66 319.54 406.67 342.63 291.21 202.15 242.42 202.15 43.44 317.03 271.67 448.79 349.99 448.79 430.21 495.11 550.15 495.11 650.45 437.2 446.66 319.54"/><g id="Axonometric_Cube" data-name="Axonometric Cube"><polygon id="Cube_face_-_right" data-name="Cube face - right" class="cls-33" points="433.13 388.88 413.04 400.48 409.68 386.26 433.13 372.73 433.13 388.88"/><polygon id="Cube_face_-_top" data-name="Cube face - top" class="cls-33" points="413.04 391.6 277.56 306.11 297.65 294.51 433.13 372.73 413.04 391.6"/><polygon id="Cube_face_-_left" data-name="Cube face - left" class="cls-34" points="413.04 400.48 277.56 322.26 277.56 306.11 413.04 384.32 413.04 400.48"/></g><g id="Axonometric_Cube-2" data-name="Axonometric Cube"><polygon id="Cube_face_-_left-2" data-name="Cube face - left" class="cls-34" points="168.58 231.22 435.43 385.28 435.43 392.74 168.58 238.68 168.58 231.22"/><polygon id="Cube_face_-_right-2" data-name="Cube face - right" class="cls-35" points="561.65 319.87 435.43 392.74 435.43 385.28 561.65 312.41 561.65 319.87"/><polygon id="Cube_face_-_top-2" data-name="Cube face - top" class="cls-36" points="435.43 385.28 168.58 231.22 294.8 158.34 561.65 312.41 435.43 385.28"/></g><path class="cls-33" d="M274.18,296.12c-5.54,8.34-3.18,12.82-3.18,12.82L295.15,295S280.75,286.22,274.18,296.12Z" transform="translate(-64.84 -36)"/><g id="Axonometric_Cylinder" data-name="Axonometric Cylinder"><path class="cls-33" d="M306.07,293.23c-6-3.45-11.35-3.73-15.23-1.42l-11.21,6.48c-9.09,27,9.85,50.44,30.46,52.12l11.22-6.47c3.41-2,5.64-6.11,6.05-11.83,0-.62-7.61,1-7.61.34,0,0-3.66-13-8.08-20.07l7.78-6A41.9,41.9,0,0,0,306.07,293.23Z" transform="translate(-64.84 -36)"/><path id="Cylinder_face" data-name="Cylinder face" class="cls-34" d="M316.21,336.68c0,13.61-9.56,19.13-21.35,12.32s-21.35-23.36-21.35-37,9.56-19.13,21.35-12.33S316.21,323.06,316.21,336.68Z" transform="translate(-64.84 -36)"/></g><g class="cls-2"><path class="cls-37" d="M294.82,341.94c-8.12-4.49-14.82-15.83-15-25.32s6.32-13.54,14.45-9.05,14.82,15.83,15,25.32S302.94,346.44,294.82,341.94Z" transform="translate(-64.84 -36)"/><path class="cls-38" d="M294.78,339.53c-7-3.86-12.74-13.61-12.86-21.77s5.44-11.64,12.42-7.78,12.75,13.61,12.87,21.77S301.77,343.4,294.78,339.53Z" transform="translate(-64.84 -36)"/><path class="cls-37" d="M295.41,332.69c-4-2.19-7.21-7.7-7.27-12.31s3.07-6.58,7-4.39,7.2,7.69,7.27,12.3S299.35,334.87,295.41,332.69Z" transform="translate(-64.84 -36)"/><path class="cls-39" d="M303.15,320.18a18.89,18.89,0,0,0-6.93-7.35c-5.14-2.85-9.23-.28-9.14,5.72s4.33,13.19,9.47,16c4.93,2.73,8.9.48,9.13-5,0-.23,0-.47,0-.71A19,19,0,0,0,303.15,320.18Zm-.73,8.66c-.18,4.22-3.23,5.94-7,3.85-4-2.19-7.21-7.7-7.27-12.31s3.07-6.58,7-4.39a14.52,14.52,0,0,1,5.32,5.64,16.51,16.51,0,0,1,1.4,3.32,12.4,12.4,0,0,1,.55,3.34C302.43,328.48,302.43,328.66,302.42,328.84Z" transform="translate(-64.84 -36)"/></g><path class="cls-33" d="M316.5,322.64a92.56,92.56,0,0,1,3.7,14.7l10.86-6.29Z" transform="translate(-64.84 -36)"/><path class="cls-34" d="M294.91,296.14c12.9,7.45,23.36,25.35,23.72,40.3l1.57.9c0-16.06-11.3-35.7-25.29-43.77s-25.4-1.58-25.44,14.48l1.53.89C271.44,294.44,282,288.69,294.91,296.14Z" transform="translate(-64.84 -36)"/><g class="cls-2"><path class="cls-40" d="M709.77,317.8a1.5,1.5,0,0,0-1.49.15l-12.39,7.15a4.54,4.54,0,0,0-2.07,3.56l0,7.48a1.46,1.46,0,0,0,.61,1.33l1.81,1,15.31-19.66Z" transform="translate(-64.84 -36)"/><path class="cls-41" d="M712.17,320.16c0-1.31-.94-1.81-2.08-1.15l-12.39,7.15a4.54,4.54,0,0,0-2.07,3.55l0,7.48c0,1.31.94,1.85,2.08,1.19l12.39-7.15a4.59,4.59,0,0,0,2.07-3.59Z" transform="translate(-64.84 -36)"/></g><path class="cls-42" d="M693.77,344l1.71-7.89c1-4.27,6.21-1.92,5.61.35l-2.35,8.33C698.3,347,693.89,346.58,693.77,344Z" transform="translate(-64.84 -36)"/><path class="cls-43" d="M441.23,241.45c-4.91-8.55-11.72-16-19.25-20.37s-14.41-4.76-19.36-1.88l-17.48,10.12c4.94-2.82,11.68-1.39,19.19,3,8,4.62,12.61,11.92,19.33,19.32Z" transform="translate(-64.84 -36)"/><path class="cls-34" d="M404.42,231.24c-7.53-4.34-14.36-4.75-19.31-1.9l38.56,22.26C418.75,243.06,411.94,235.59,404.42,231.24Z" transform="translate(-64.84 -36)"/><polygon class="cls-44" points="269.2 180.52 273.59 177.15 341.24 216.03 336.86 219.41 269.2 180.52"/><polygon class="cls-45" points="250.07 21.63 254.46 18.25 273.59 177.15 269.2 180.52 250.07 21.63"/><polygon class="cls-45" points="323.17 57.56 327.55 54.18 348.22 225.88 343.84 229.25 323.17 57.56"/><polygon class="cls-46" points="243.09 11.78 247.47 8.41 327.55 54.18 323.17 57.56 243.09 11.78"/><path class="cls-47" d="M307.93,47.78,388,93.56l20.67,171.69L328.6,219.48Zm93.76,207.63L382.56,96.51,314.91,57.63,334,216.52l67.65,38.89Z" transform="translate(-64.84 -36)"/><polygon class="cls-48" points="336.86 219.41 317.73 60.51 250.07 21.63 269.2 180.52 336.86 219.41 336.86 219.41"/><polygon class="cls-44" points="351.63 228.11 356.01 224.74 423.66 263.62 419.28 267 351.63 228.11"/><polygon class="cls-45" points="332.5 69.21 336.88 65.84 356.01 224.74 351.63 228.11 332.5 69.21"/><polygon class="cls-45" points="405.59 105.15 409.97 101.77 430.64 273.46 426.26 276.84 405.59 105.15"/><polygon class="cls-46" points="325.51 59.37 329.9 55.99 409.97 101.77 405.59 105.15 325.51 59.37"/><path class="cls-47" d="M390.35,95.37l80.08,45.78L491.1,312.84,411,267.06ZM484.12,303,465,144.1l-67.66-38.89,19.14,158.9L484.12,303Z" transform="translate(-64.84 -36)"/><polygon class="cls-48" points="419.28 267 400.15 108.1 332.5 69.21 351.63 228.11 419.28 267 419.28 267"/><polygon class="cls-44" points="434.05 275.7 438.43 272.32 506.08 311.21 501.7 314.58 434.05 275.7"/><polygon class="cls-45" points="414.92 116.8 419.3 113.42 438.43 272.32 434.05 275.7 414.92 116.8"/><polygon class="cls-45" points="488.01 152.73 492.4 149.36 513.07 321.05 508.69 324.43 488.01 152.73"/><polygon class="cls-46" points="407.94 106.96 412.32 103.58 492.4 149.36 488.01 152.73 407.94 106.96"/><path class="cls-47" d="M472.77,143l80.08,45.77,20.67,171.7-80.07-45.78Zm93.77,207.62L547.41,191.69,479.76,152.8l19.13,158.9,67.65,38.88Z" transform="translate(-64.84 -36)"/><polygon class="cls-48" points="501.7 314.58 482.57 155.69 414.92 116.8 434.05 275.7 501.7 314.58 501.7 314.58"/><polygon class="cls-44" points="219.94 204.52 212.39 200.13 251.69 177.45 259.23 181.84 219.94 204.52"/><polygon class="cls-49" points="259.23 181.84 251.69 177.45 230.57 8.39 238.12 12.78 259.23 181.84"/><polygon class="cls-44" points="235.59 8.41 228.04 4.02 235.01 0 242.56 4.39 235.59 8.41"/><polygon class="cls-49" points="214.18 213.68 206.63 209.29 228.04 4.02 235.59 8.41 214.18 213.68"/><path class="cls-50" d="M307.39,40.39l-7,4L279,249.68l50.84-29.36ZM304,56.69l20.12,161.14-39.3,22.69Z" transform="translate(-64.84 -36)"/><polygon class="cls-44" points="517.65 331.11 259.2 181.86 264.34 178.89 518.39 325.6 517.65 331.11"/><polygon class="cls-49" points="513.84 333.88 513.12 328.5 259.2 181.86 259.91 187.25 513.84 333.88"/><polygon class="cls-44" points="507.94 240.49 251.88 92.63 253.43 91.74 509.48 239.6 507.94 240.49"/><polygon class="cls-49" points="506.53 244.65 505.81 239.27 251.88 92.63 252.6 98.02 506.53 244.65"/><polygon class="cls-44" points="483.59 257.21 225.14 107.97 226.68 107.08 485.13 256.32 483.59 257.21"/><polygon class="cls-49" points="478.42 260.77 479.06 254.6 225.14 107.97 224.5 114.14 478.42 260.77"/><polygon class="cls-44" points="473.25 356.74 214.8 207.5 219.94 204.53 478.39 353.77 473.25 356.74"/><polygon class="cls-49" points="468.08 360.3 468.73 354.13 214.8 207.5 214.16 213.66 468.08 360.3"/><polygon class="cls-44" points="477.72 353.35 470.17 348.96 509.46 326.28 517.01 330.66 477.72 353.35"/><polygon class="cls-49" points="517.01 330.66 509.46 326.28 488.36 157.22 495.9 161.61 517.01 330.66"/><polygon class="cls-44" points="493.37 157.24 232.2 6.43 239.17 2.41 500.34 153.22 493.37 157.24"/><polygon class="cls-49" points="471.96 362.51 464.41 358.12 485.82 152.85 493.37 157.24 471.96 362.51"/><path class="cls-50" d="M565.17,189.22l-7,4L536.8,398.51l50.84-29.36Zm-3.44,16.3,20.12,161.14-39.29,22.69Z" transform="translate(-64.84 -36)"/><polygon class="cls-49" points="488.05 162.21 488.84 154.63 233.75 7.33 232.96 14.9 488.05 162.21"/><polygon class="cls-44" points="209.81 213.21 214.24 211.08 281.77 250.07 277.34 252.2 209.81 213.21"/><polygon class="cls-45" points="228.08 32.89 232.52 30.76 214.24 211.08 209.81 213.21 228.08 32.89"/><polygon class="cls-45" points="302.43 68.16 306.86 66.03 287.21 260.87 282.78 263 302.43 68.16"/><polygon class="cls-46" points="222.62 22.08 227.05 19.95 306.86 66.03 302.43 68.16 222.62 22.08"/><path class="cls-47" d="M287.45,58.08l79.81,46.08L347.61,299,267.8,252.92ZM342.17,288.2l18.28-180.32-67.53-39L274.64,249.21l67.53,39Z" transform="translate(-64.84 -36)"/><polygon class="cls-48" points="277.34 252.2 295.61 71.88 228.08 32.89 209.81 213.21 277.34 252.2 277.34 252.2"/><polygon class="cls-44" points="291.74 260.51 296.18 258.38 363.71 297.37 359.27 299.5 291.74 260.51"/><polygon class="cls-45" points="310.01 80.2 314.45 78.06 296.18 258.38 291.74 260.51 310.01 80.2"/><polygon class="cls-45" points="384.36 115.46 388.8 113.33 369.15 308.17 364.71 310.3 384.36 115.46"/><polygon class="cls-46" points="304.55 69.38 308.99 67.25 388.8 113.33 384.36 115.46 304.55 69.38"/><path class="cls-47" d="M369.38,105.38l79.82,46.08L429.55,346.3l-79.81-46.08ZM424.11,335.5l18.27-180.32-67.53-39L356.58,296.51l67.53,39Z" transform="translate(-64.84 -36)"/><polygon class="cls-48" points="359.27 299.5 377.54 119.19 310.01 80.2 291.74 260.51 359.27 299.5 359.27 299.5"/><polygon class="cls-44" points="373.67 307.82 378.11 305.69 445.64 344.68 441.2 346.81 373.67 307.82"/><polygon class="cls-45" points="391.94 127.5 396.38 125.37 378.11 305.69 373.67 307.82 391.94 127.5"/><polygon class="cls-45" points="466.29 162.77 470.73 160.64 451.08 355.47 446.64 357.61 466.29 162.77"/><polygon class="cls-46" points="386.48 116.69 390.92 114.56 470.73 160.64 466.29 162.77 386.48 116.69"/><path class="cls-47" d="M451.32,152.69l79.81,46.08L511.48,393.6l-79.81-46.07ZM506,382.81l18.27-180.32-67.53-39L438.51,343.82l67.53,39Z" transform="translate(-64.84 -36)"/><polygon class="cls-48" points="441.2 346.81 459.48 166.49 391.94 127.5 373.67 307.82 441.2 346.81 441.2 346.81"/><polygon class="cls-51" points="681.9 400.38 681.9 406.8 697.32 415.7 697.32 409.29 681.9 400.38"/><polygon id="Cube_face_-_top-3" data-name="Cube face - top" class="cls-36" points="697.32 409.29 681.9 400.38 690.29 395.54 705.72 404.44 697.32 409.29"/><path class="cls-33" d="M611.52,441.78l-40.28,21.58A16,16,0,0,0,565,471c-.86,2.53.58,16.1.58,16.1L615,458.35C614,452.8,612.79,447.29,611.52,441.78Z" transform="translate(-64.84 -36)"/><path class="cls-40" d="M619.34,236.81c-2-1.13-3.72-1.23-5-.49L491.13,307.76c1.27-.74,3-.63,5,.5l44.92,25.93,123.22-71.44Z" transform="translate(-64.84 -36)"/><path class="cls-52" d="M668.83,273.76l0-5.4-4.6-5.61L541.05,334.19c.26.15-4.36,1.89,0,14.81,9.78,29,33,71.45,33,71.45,49.31-14,101.25-46.59,128.51-74.63Zm22.23,72.06s-47.8-16.45-68.86-28.6c-.3-.18,8.67-17.94,8.67-17.94l34.47-19.93,30,64.25C695,343.89,693.64,347.13,691.06,345.82Z" transform="translate(-64.84 -36)"/><path class="cls-53" d="M695.35,343.6a1.18,1.18,0,0,1-1.35.11l-59-34a8.17,8.17,0,0,1-4.09-7.12v-3.24l-79.32,46,26.27,69.57c40.22-16.8,92.54-47,118.59-68.86Z" transform="translate(-64.84 -36)"/><g class="cls-54"><path class="cls-55" d="M668,338.34s-.72-3-6.94-3.54c-8.85-.74-22.43,4-30.29,10.59-7.48,6.27-5.2,9.5-4.42,11.47,1.87,4.72,12.14,4.52,22.37,1l5.72,15.28,3-2.39-5.31-14.19a45.6,45.6,0,0,0,11.43-6.75C671,343.57,668.78,340.31,668,338.34Zm-34.12,19.23c-2.59-.21-4.42-.92-5.47-2a1.3,1.3,0,0,1-.39-1,5.3,5.3,0,0,1,.16-.75l17.45-1.47.61,1.61c.09.24.38.4.86.45.09,0,.22-.05.32-.05l.35.92C642.85,357,637.85,357.9,633.88,357.57Zm14.53-9.44a6.5,6.5,0,0,0-2.82,1.12c-.07.07-16.58,2.47-16.58,2.47a16.93,16.93,0,0,1,3.91-4.46c6.8-5.69,18.28-9.83,26.32-9.64Zm13-.19a40,40,0,0,1-8.59,5.29l-1.2-1.32-.67-1.76,10.78-12.34a7.53,7.53,0,0,1,4.18,1.8,1.34,1.34,0,0,1,.39,1C666.25,342.67,664.64,345.24,661.43,347.94Z" transform="translate(-64.84 -36)"/><path class="cls-55" d="M578.16,419c46.27-20.54,87.35-42.57,117.43-67.8l-11.65-6.73L572.82,405.89C575.69,410.09,575.58,414.62,578.16,419Z" transform="translate(-64.84 -36)"/></g><path class="cls-56" d="M539.65,343a35.19,35.19,0,0,0,1,4.71l128.15-74,0-5.09L545.66,339.81Z" transform="translate(-64.84 -36)"/><g id="Axonometric_Cylinder-2" data-name="Axonometric Cylinder"><path class="cls-33" d="M603.26,464.76c-6-3.44-11.36-3.73-15.23-1.41l-11.22,6.47c-9.08,27,9.86,50.44,30.47,52.13l11.22-6.48c3.78-2.26,6.11-7,6.11-13.74C624.61,488.12,615.05,471.57,603.26,464.76Z" transform="translate(-64.84 -36)"/><path id="Cylinder_face-2" data-name="Cylinder face" class="cls-34" d="M613.39,508.21c0,13.61-9.55,19.13-21.34,12.32s-21.35-23.36-21.35-37,9.56-19.13,21.35-12.32S613.39,494.6,613.39,508.21Z" transform="translate(-64.84 -36)"/></g><g class="cls-2"><path class="cls-37" d="M592,513.47c-8.12-4.49-14.82-15.83-15-25.32s6.32-13.54,14.45-9,14.82,15.84,15,25.33S600.13,518,592,513.47Z" transform="translate(-64.84 -36)"/><path class="cls-38" d="M592,511.06c-7-3.86-12.74-13.61-12.86-21.77s5.44-11.64,12.42-7.78,12.74,13.61,12.87,21.77S599,514.93,592,511.06Z" transform="translate(-64.84 -36)"/><path class="cls-37" d="M592.59,504.22c-3.94-2.18-7.2-7.69-7.27-12.31s3.08-6.58,7-4.39,7.2,7.69,7.27,12.3S596.54,506.4,592.59,504.22Z" transform="translate(-64.84 -36)"/><path class="cls-39" d="M600.34,491.71a18.89,18.89,0,0,0-6.93-7.35c-5.14-2.85-9.23-.28-9.14,5.72s4.33,13.19,9.47,16c4.93,2.73,8.9.48,9.13-5,0-.23,0-.47,0-.71A19,19,0,0,0,600.34,491.71Zm-.73,8.66c-.18,4.22-3.23,5.94-7,3.85-4-2.18-7.21-7.69-7.28-12.31s3.08-6.58,7-4.39a14.55,14.55,0,0,1,5.32,5.65,16.19,16.19,0,0,1,1.4,3.31,12.47,12.47,0,0,1,.55,3.34C599.62,500,599.62,500.19,599.61,500.37Z" transform="translate(-64.84 -36)"/></g><path class="cls-57" d="M625,463.09c-2.12-4.17-4.81-8.5-8.48-11.4l-42.48-31.24-28.42-75.59v-5.05l-4.61-5.62-44.92-25.93c-3.9-2.25-7-.43-7.05,4l0,130.67,76.45,44.14,0-7.47a24.77,24.77,0,0,1,1.2-8.09c3.06-9.12,11.51-10.11,21.34-4.44.35.2.7.42,1.06.64,16.7,10.37,26.17,24,26.12,40.33,0,.2,0,7.35,0,7.73l12,6.94,1.69-43.9A36.72,36.72,0,0,0,625,463.09Z" transform="translate(-64.84 -36)"/><path class="cls-40" d="M750.34,384.9a11.65,11.65,0,0,0-3.16-3.85l-44.6-35.23c-29.24,25-80.75,56.19-128.51,74.63l44.6,35.24a11.55,11.55,0,0,1,3.16,3.85l4.34,8.52,128.51-74.63Z" transform="translate(-64.84 -36)"/><polygon class="cls-52" points="685.5 348.9 556.99 423.54 561.33 432.06 689.84 357.43 685.5 348.9"/><path class="cls-56" d="M754.68,393.43,626.17,468.06a11.71,11.71,0,0,1,1.27,5.32l-.14,49.34,128.51-74.63.14-49.35A11.7,11.7,0,0,0,754.68,393.43Z" transform="translate(-64.84 -36)"/><path class="cls-58" d="M696.5,346.06l-31.16-66.71c-.13.09-113.7,66-113.7,66l26.27,69.57C618.13,398.12,670.45,367.91,696.5,346.06Z" transform="translate(-64.84 -36)"/><path class="cls-53" d="M567,416.61,543.8,352.72a21,21,0,0,0-9.34-11l-26.74-15.37a3.78,3.78,0,0,0-5.62,3.3v47.28a8.2,8.2,0,0,0,4.11,7.09l59,34.06A1.2,1.2,0,0,0,567,416.61Z" transform="translate(-64.84 -36)"/><polygon id="Cube_face_-_top-4" data-name="Cube face - top" class="cls-36" points="567.33 484.33 561 480.68 691.16 405.53 697.49 409.19 567.33 484.33"/><polygon class="cls-34" points="544.65 479.62 544.65 486.04 560.08 494.94 560.08 488.52 544.65 479.62"/><polygon class="cls-42" points="697.32 409.29 568.47 483.68 560.08 488.52 560.08 494.94 567.33 490.75 697.49 415.61 705.72 410.86 705.72 404.44 697.32 409.29"/><polygon id="Cube_face_-_top-5" data-name="Cube face - top" class="cls-36" points="560.08 488.52 544.65 479.62 553.04 474.77 568.47 483.68 560.08 488.52"/><polygon id="Cube_face_-_left-3" data-name="Cube face - left" class="cls-59" points="666.78 390.81 669.42 392.33 674.78 382.83 666.78 378.21 666.78 390.81"/><polygon id="Cube_face_-_top-6" data-name="Cube face - top" class="cls-40" points="674.78 382.83 666.78 378.21 689.46 365.12 692.1 366.64 674.78 382.83"/><polygon class="cls-42" points="668.94 380.01 668.94 392.61 692.1 379.24 692.1 366.64 668.94 380.01"/><polygon class="cls-60" points="670.58 380.41 689.4 369.55 689.4 379.37 670.58 390.23 670.58 380.41"/><polygon class="cls-61" points="687.86 370.43 690.94 368.66 690.94 378.48 687.86 380.26 687.86 370.43"/><g id="Axonometric_Cube-3" data-name="Axonometric Cube"><polygon id="Cube_face_-_left-4" data-name="Cube face - left" class="cls-59" points="590.36 455.75 587.72 454.23 587.72 423.85 590.36 425.37 590.36 455.75"/><polygon id="Cube_face_-_right-3" data-name="Cube face - right" class="cls-42" points="669.42 410.1 590.36 455.75 590.36 425.37 669.42 379.72 669.42 410.1"/><path class="cls-33" d="M657.64,462.93l74.17-42.82v2.65l-74.17,42.82Zm0,8.06,74.17-42.82v-2.64l-74.17,42.82Zm0,5.42,74.17-42.83v-2.64l-74.17,42.82Zm0,5.41L731.81,439v-2.64l-74.17,42.82Zm0,5.37,74.17-42.82v-2.65l-74.17,42.82Z" transform="translate(-64.84 -36)"/><polygon id="Cube_face_-_top-7" data-name="Cube face - top" class="cls-40" points="590.36 425.37 587.72 423.85 666.79 378.2 669.42 379.72 590.36 425.37"/></g><polygon id="Cube_face_-_left-5" data-name="Cube face - left" class="cls-59" points="565.04 449.55 567.67 451.08 573.04 441.57 565.04 436.95 565.04 449.55"/><polygon id="Cube_face_-_top-8" data-name="Cube face - top" class="cls-40" points="573.04 441.57 565.04 436.95 588.36 423.49 590.36 425.38 573.04 441.57"/><polygon class="cls-42" points="567.67 438.48 567.67 451.08 590.86 437.69 591.32 424.83 567.67 438.48"/><polygon class="cls-60" points="589.19 427.4 570.38 438.26 570.38 448.09 589.19 437.22 589.19 427.4"/><polygon class="cls-61" points="571.92 437.37 568.84 439.15 568.84 448.98 571.92 447.19 571.92 437.37"/><path class="cls-62" d="M572.08,464.73V422.59L545.52,351.1a20.63,20.63,0,0,0-9-10.67l-40-23.11a.64.64,0,0,0-.63,0,.63.63,0,0,0-.32.54V441.23l70,40.42v-1l-69.17-39.94V318.21l39.72,22.94a19.77,19.77,0,0,1,8.65,10.24l26.5,71.28v42.64C571.53,465.12,571.78,464.89,572.08,464.73Z" transform="translate(-64.84 -36)"/><path class="cls-34" d="M504.05,394.31l9.09,5.25c1.08.62,2,.11,2-1.13v-.36a4.29,4.29,0,0,0-2-3.38l-9.09-5.25c-1.08-.62-1.95-.12-1.95,1.13v.36A4.31,4.31,0,0,0,504.05,394.31Z" transform="translate(-64.84 -36)"/><path class="cls-33" d="M514.58,398.06c0,1-.72,1.45-1.62.94l-8.81-5.09a3.58,3.58,0,0,1-1.61-2.8Z" transform="translate(-64.84 -36)"/><polygon class="cls-63" points="489.73 235.06 458.01 253.38 492.03 273.02 495.61 273.02 489.73 235.06"/><g id="Axonometric_Cube-4" data-name="Axonometric Cube"><polygon id="Cube_face_-_left-6" data-name="Cube face - left" class="cls-57" points="495.61 273.02 459.83 252.37 459.83 245.57 495.61 266.23 495.61 273.02"/><polygon id="Cube_face_-_right-4" data-name="Cube face - right" class="cls-56" points="565.29 232.79 495.61 273.02 495.61 266.23 565.29 225.99 565.29 232.79"/><polygon id="Cube_face_-_top-9" data-name="Cube face - top" class="cls-40" points="495.61 266.23 459.83 245.57 529.52 205.34 565.29 225.99 495.61 266.23"/></g><path class="cls-64" d="M332.59,304.18c-4.92-8.55-11.73-16-19.25-20.37s-14.41-4.76-19.36-1.88l-17.49,10.12c4.95-2.82,11.68-1.4,19.2,2.94,8,4.62,12.61,11.93,19.33,19.33Z" transform="translate(-64.84 -36)"/><path class="cls-34" d="M315,314.32c-4.91-8.54-11.72-16-19.25-20.35s-14.35-4.75-19.3-1.9l-.27.2s7.26-3.26,17.8,2,19.22,20.32,19.22,20.32Z" transform="translate(-64.84 -36)"/><path class="cls-65" d="M566.71,415.94,508.8,382.51a8.2,8.2,0,0,1-4.12-7.09V328.13a3.62,3.62,0,0,1,.8-2.2,3.73,3.73,0,0,0-3.38,3.7v47.28a8.19,8.19,0,0,0,4.12,7.09l59,34.06a1.2,1.2,0,0,0,1.74-1.45Z" transform="translate(-64.84 -36)"/><g class="cls-2"><path class="cls-40" d="M556.14,406.5a1.47,1.47,0,0,0-1.49.15l-12.38,7.15a4.54,4.54,0,0,0-2.07,3.55l0,7.48a1.44,1.44,0,0,0,.61,1.33l1.8,1L558,407.55Z" transform="translate(-64.84 -36)"/><path class="cls-41" d="M558.55,408.86c0-1.31-.95-1.82-2.09-1.16l-12.38,7.15a4.49,4.49,0,0,0-2.07,3.56l0,7.48c0,1.31.94,1.84,2.08,1.18l12.39-7.15a4.59,4.59,0,0,0,2.07-3.58Z" transform="translate(-64.84 -36)"/></g><path class="cls-42" d="M566.71,415.94s-4-.44-7.77-1a3.91,3.91,0,0,0-2,.11c-2.78,1.23-4.51,5.35-2.43,5.72l11.8.52C568.46,421.59,569.07,416.91,566.71,415.94Z" transform="translate(-64.84 -36)"/><path class="cls-66" d="M241.34,277.28l-3.28-1.9a3.65,3.65,0,0,1-1.76-2.77c0-1,.79-1.31,1.76-.75l3.28,1.9a3.62,3.62,0,0,1,1.76,2.78C243.1,277.51,242.32,277.84,241.34,277.28Z" transform="translate(-64.84 -36)"/><path class="cls-66" d="M613.57,480.52l-3.28-1.9a3.62,3.62,0,0,1-1.76-2.77c0-1,.78-1.31,1.76-.75l3.28,1.9a3.65,3.65,0,0,1,1.76,2.78C615.33,480.75,614.54,481.08,613.57,480.52Z" transform="translate(-64.84 -36)"/></g><g id="_12" data-name="12"><path class="cls-67" d="M356.18,377.4c.9,2.65.55,3.29,3.35,3.38,1,0,2-.16,3-.13,2.67.07,5.05,1.59,7.26,3.06,8.22,5.44,16.45,11,25.58,14.74,2.16.88,23.65-6.87,23.54-9.05-7.33-.59-14.72-1.19-21.79-3.19-1.47-.42-8.24-2.63-12.1-3.89-5-1.65-19.68-8.64-19.76-9-.45-2.26-2.75-3.61-4.9-4.43-4.22-1.59-5.95-.3-5.95-.3C355.15,370.76,355.37,375,356.18,377.4Z" transform="translate(-64.84 -36)"/><path class="cls-49" d="M355.34,386.57a23.44,23.44,0,0,0,2.84,4.72,102.88,102.88,0,0,0,1.76-31c-.49-5.09-4.06.28-3.76,2.22C357.31,369.88,355.64,382.41,355.34,386.57Z" transform="translate(-64.84 -36)"/><g id="Axonometric_Cylinder-3" data-name="Axonometric Cylinder"><path class="cls-68" d="M357.44,348.61c-1.66-1-3.16-1-4.23-.39l-1.27.72,8.47,14.49,1.26-.73c1.05-.63,1.7-1.95,1.7-3.82A13.12,13.12,0,0,0,357.44,348.61Z" transform="translate(-64.84 -36)"/><path id="Cylinder_face-3" data-name="Cylinder face" class="cls-69" d="M362.11,359.61c0,3.78-2.66,5.32-5.93,3.42a13.09,13.09,0,0,1-5.93-10.27c0-3.78,2.65-5.31,5.93-3.42A13.12,13.12,0,0,1,362.11,359.61Z" transform="translate(-64.84 -36)"/></g><g id="Axonometric_Cylinder-4" data-name="Axonometric Cylinder"><path class="cls-68" d="M357.44,383.62c-1.66-.95-3.16-1-4.23-.39l-1.27.73,8.47,14.48,1.26-.73c1.05-.63,1.7-1.95,1.7-3.82A13.12,13.12,0,0,0,357.44,383.62Z" transform="translate(-64.84 -36)"/><path id="Cylinder_face-4" data-name="Cylinder face" class="cls-69" d="M362.11,394.62c0,3.79-2.66,5.32-5.93,3.43a13.09,13.09,0,0,1-5.93-10.27c0-3.79,2.65-5.32,5.93-3.43A13.12,13.12,0,0,1,362.11,394.62Z" transform="translate(-64.84 -36)"/></g><path class="cls-67" d="M354,373.55c-.89-.67-.33-3.69.17-3.16-.79-2.22.79-3.22,4.12.26a1.75,1.75,0,0,1,.53,1.2c0,1.35-1.55.44-2.87,0,3.4,1.06,3.06,4.51,1.15,3.68,1.58,1.11,1,3.33-.06,2.59.76.72.79,1.09.57,1.47-.52.83-1.59,0-2.54-.75s-1.29-2.11-.83-2.14C353.45,376.12,353.2,373.57,354,373.55Z" transform="translate(-64.84 -36)"/><path class="cls-32" d="M233.12,440.58c-3.61-2.65-7.13-5.4-10.82-7.93-6.79.08-16.56.19-24.81.19-33,0-67.37,17-72.69,31.1-3.62,9.6,14.86,11.56,44.85,11.56,3.25,0,6.42-.12,9.51-.32l-1.7-19.87c0-.13,19.65-5.55,29.08-7.61,6.15-1.34,18.9-1.45,27-1.37C233.47,444.41,233.33,442.49,233.12,440.58Z" transform="translate(-64.84 -36)"/><path class="cls-70" d="M239.39,443.9c-.07-.53.05-1.93-.62-2.52a47.53,47.53,0,0,0-8.1-5.71l-19-3.05a16.27,16.27,0,0,0,0,2.52c.12,1.69.25,2.38,2.21,3.57,9.86,6,11.2,6.84,13,7.72,2,1,4.49,2.27,9.8.76C239.34,446,239.51,444.88,239.39,443.9Z" transform="translate(-64.84 -36)"/><path class="cls-71" d="M238.24,440.45c-2.42-2-8.35-5.92-11.29-8.54a16.59,16.59,0,0,1-3.17-3.72c-1.14-2.64-7.18-2.62-10.55-.87-1.58.83-1.87,3.54-1.7,6.06.12,1.69.25,2.38,2.21,3.58,9.86,6,12,7.11,13.85,7.91a10.52,10.52,0,0,0,7.47.64,6.59,6.59,0,0,0,3.46-1.9C239.32,442.73,239.72,441.65,238.24,440.45Z" transform="translate(-64.84 -36)"/><path class="cls-70" d="M170,465.07c-.44,4.12-.53,8.38,1,9.73,3.18,2.87,11.06,4.21,13.27-.19.53-1.05.12-5.19-.41-9.54Z" transform="translate(-64.84 -36)"/><path class="cls-71" d="M170.89,472.42c3.18,2.87,11.06,4.21,13.27-.19,1-2.05-1.21-16-1.29-20,0-1.15-.05-3.17-.05-3.17-.3-.4-1.78-.74-2.22-1-1.9-.94-5.39-.17-7.5-.32-1.08-.07-2.1,7.12-2.2,7.84C170.3,459.93,168.41,470.18,170.89,472.42Z" transform="translate(-64.84 -36)"/><path class="cls-72" d="M225.9,383c.75-8.33-2.07-22-5.81-45.47a4.64,4.64,0,0,0-5.65-3.86l-28.78,6.82c-11.94,18.48-7.41,22.86-11.82,59.17a52,52,0,0,1-2,9.4c-1.81,5.8-3.09,7.1-1.75,19,.9,7.93.44,13.16,1.34,21.09,0,4.45,12.22,5.38,11.95,1.1,1.54-10.2,3.72-31.66,4.44-33.92.25-.76.51-1.5.79-2.24a71.75,71.75,0,0,0,3.13-10.19c1.64-7.66,8.5-23.14,9.53-28.65,0,0,7,16.47,8,22.37s-.17,12.78.81,17.84a104.86,104.86,0,0,1,1.27,12.71c-.09,5.24,13.29,5.57,13.48.93,0,0,1.9-14.34,1.05-24.84A123.72,123.72,0,0,1,225.9,383Z" transform="translate(-64.84 -36)"/><path class="cls-73" d="M255.27,315.24c-9.35-2.92-28.46-7.12-28.86-7.64-.55-.73-5.15-20.31-8-28.62-3.44-10-17.67-10.83-14.23,2.66,3.06,12.12,9.49,30.28,10.58,33.48a8.09,8.09,0,0,0,1.87,3.56c3.08,2.78,26.55,3.2,36.89,4.79C256.47,323.85,257.92,316.33,255.27,315.24Z" transform="translate(-64.84 -36)"/><path class="cls-73" d="M216.66,281.07c-.46-4.05-2-12.56-11.44-9.09l-32.09,18.48c-3.48,2.28-3.53,3.69-3.47,6.29a20.2,20.2,0,0,0,2.13,7.45c11.21,25.95,16,28.92,11.08,40.92,2.37,12,40.37,10.32,37.46-6.36-.65-3.7-1.15-7.55-1.59-11.28C217.4,316.25,217.45,288.07,216.66,281.07Z" transform="translate(-64.84 -36)"/><path class="cls-72" d="M192.48,311.54c.26,13,.75,15.91-8.6,14.57,2.92,11,.87,12.26-.86,18.65-1.46,21.93,37.57,14.07,37.73-2.95-1.55-13.43-2.84-22-2.87-27.23,0,0-.82,3.51-1.13,1.46-.24-1.58,0-8.15-.18-13-.29-7.73-.74-11.37-1.45-14.53-2-9-9.46-15-15.1-11.94.2.08.45.18.73.31,8.77,4,12.24,10.25,12.78,26.7-4.14,3.24-17.47,6.64-17.47,6.64-1-8.77-4.74-21.75-14.09-24.1a4,4,0,0,0-2.5.19c-1.9.88-1.88,1.55-1.88,1.55C181.5,287.88,192.06,291.22,192.48,311.54Z" transform="translate(-64.84 -36)"/><path class="cls-74" d="M213,314.66l-6.73,5-7.08,0-.58-8.15a45.12,45.12,0,0,0,13.81-5.07Z" transform="translate(-64.84 -36)"/><path class="cls-67" d="M270.87,315.11c0-.53-2.81-.42-3.79-.51a68.67,68.67,0,0,0-11.28,1.07l-.68.05c-2.27-.5-4.23,7.33-.89,7.34.72,0,8.82,2.53,10.67,3.05,2.34.66,0,0,2.32-.73a3.46,3.46,0,0,0,2.53-2.39,7.53,7.53,0,0,0,.67-2.19C270.45,320.51,270.87,316.42,270.87,315.11Z" transform="translate(-64.84 -36)"/><path class="cls-49" d="M263.85,333.75a23,23,0,0,0,2.84,4.72,102.91,102.91,0,0,0,1.75-31c-.49-5.09-4.06.28-3.76,2.22C265.82,317.06,264.15,329.58,263.85,333.75Z" transform="translate(-64.84 -36)"/><g id="Axonometric_Cylinder-5" data-name="Axonometric Cylinder"><path class="cls-68" d="M265.94,295.78c-1.65-.95-3.15-1-4.23-.39l-1.26.73,8.46,14.48,1.27-.73c1.05-.63,1.69-1.94,1.69-3.81A13.11,13.11,0,0,0,265.94,295.78Z" transform="translate(-64.84 -36)"/><path id="Cylinder_face-5" data-name="Cylinder face" class="cls-69" d="M270.61,306.79c0,3.78-2.65,5.31-5.93,3.42a13.12,13.12,0,0,1-5.93-10.27c0-3.79,2.66-5.32,5.93-3.43A13.1,13.1,0,0,1,270.61,306.79Z" transform="translate(-64.84 -36)"/></g><g id="Axonometric_Cylinder-6" data-name="Axonometric Cylinder"><path class="cls-68" d="M265.94,330.8c-1.65-1-3.15-1-4.23-.4l-1.26.73,8.46,14.49,1.27-.73c1.05-.63,1.69-1.95,1.69-3.82A13.09,13.09,0,0,0,265.94,330.8Z" transform="translate(-64.84 -36)"/><path id="Cylinder_face-6" data-name="Cylinder face" class="cls-69" d="M270.61,341.8c0,3.78-2.65,5.31-5.93,3.42A13.12,13.12,0,0,1,258.75,335c0-3.78,2.66-5.32,5.93-3.42A13.09,13.09,0,0,1,270.61,341.8Z" transform="translate(-64.84 -36)"/></g><path class="cls-75" d="M188.27,283.84c4.21,6.21,11.34,5.3,14.5,3.9l1.1,4.42.23-4.86c1.63-.79,2.29-1.71,2.19-4.22a15.08,15.08,0,0,0-1.46-5.77c-.58-.93-2.68-5.47-5.62-6.66s-7-.57-8.39,2.57c-.67,1.45-.67,3.1-1.39,4.55-.45.91-.92,1.67-1.33,2.45A3.11,3.11,0,0,0,188.27,283.84Z" transform="translate(-64.84 -36)"/><path class="cls-76" d="M204.1,287.3l6.55,2.3s-2.81-7.32-5.48-10.05c.63,1.3.29,2.73.56,3.63A3.56,3.56,0,0,1,204.1,287.3Z" transform="translate(-64.84 -36)"/><path class="cls-67" d="M189.83,263.5a38.35,38.35,0,0,1-1.28,4.1c-.49,1.53.27,3.35.48,4.88a9.87,9.87,0,0,0,2.41,5,19.56,19.56,0,0,0,5.46,4.11,26.27,26.27,0,0,0,7.22,2.85c2.26.47,5,1.17,6.15-1.38a7.76,7.76,0,0,0,.52-3.48,15.51,15.51,0,0,1,.14-3.54,18,18,0,0,0,.71-3A13,13,0,0,0,211,270a8.45,8.45,0,0,1-.07-3.17,6.63,6.63,0,0,0,.18-1.59,4.62,4.62,0,0,0-.33-1.21l-1.19-3.23a8.49,8.49,0,0,0-1.12-2.28,7,7,0,0,0-3.25-2.1,14.55,14.55,0,0,0-8.29-.77,9.13,9.13,0,0,0-6.36,5.06A15.21,15.21,0,0,0,189.83,263.5Z" transform="translate(-64.84 -36)"/><path class="cls-77" d="M209.41,255.33c-3.23-5.24-20.6-11.75-26.25,1.47a15.3,15.3,0,0,0-1,8.38,17,17,0,0,0,2.23,6.31,30.61,30.61,0,0,1,3.62,6.66,1.71,1.71,0,0,0,.68,1c1.15-1.75,2-3.66,1.84-4.44-.54-2.09-.79-4.53,1-3a7.35,7.35,0,0,0,1.26,1.06c.48.17.81-.31,1-.88a13.32,13.32,0,0,1,3.46-5.24c3.32-3,8.28-6.21,11.23-6.33a1.6,1.6,0,0,1,1.34,1A6.26,6.26,0,0,0,209.41,255.33Z" transform="translate(-64.84 -36)"/><path class="cls-67" d="M191.69,271.9c-1.57-2.46-3.7-3.9-4.77-3.22s-.64,3.22.93,5.67,4.17,3.54,4.77,3.22C193.68,276.9,193.26,274.35,191.69,271.9Z" transform="translate(-64.84 -36)"/><path class="cls-76" d="M202.77,287.74l-6.58,7.92a35.58,35.58,0,0,1-8.61-8.13c-2.25-3.45-1.5-5.5.65-7.56.16,2.81,3.05,5.33,5,6.4A14.1,14.1,0,0,0,202.77,287.74Z" transform="translate(-64.84 -36)"/><path class="cls-67" d="M270.79,320.05c.95-.58.66-3.64.12-3.16,1-2.14-.51-3.28-4.13-.11a1.71,1.71,0,0,0-.64,1.15c-.07,1.35,1.51.58,2.86.29-3.49.75-3.46,4.22-1.47,3.56-1.67,1-1.31,3.22-.18,2.59-.82.64-.88,1-.7,1.41.44.87,1.59.16,2.6-.52s1.47-2,1-2.06C271.12,322.66,271.61,320.15,270.79,320.05Z" transform="translate(-64.84 -36)"/><path class="cls-72" d="M194.79,268.61c3.91.63,15.69-2.28,16.68-7.65,0,0-2.45-16.79-17.61-14.72-12,2.29-11.87,15.54-11.87,15.54C182.24,263.85,191.44,268.08,194.79,268.61Z" transform="translate(-64.84 -36)"/><path class="cls-74" d="M217.82,266.36c-12.49,1.62-8.19,11-27.3.91,6.25,1.49,20.68-1.75,20.88-7C211.4,260.23,220.51,266,217.82,266.36Z" transform="translate(-64.84 -36)"/><path class="cls-74" d="M196.41,249.48c-2.62,0-2.64-1.49,0-1.52S199,249.45,196.41,249.48Z" transform="translate(-64.84 -36)"/><g id="_2" data-name="2"><g id="Axonometric_Cube-5" data-name="Axonometric Cube"><polygon id="Cube_face_-_top-10" data-name="Cube face - top" class="cls-46" points="316.43 417.69 321.55 412.59 160.28 319.48 153.7 322.86 316.43 417.69"/><polygon id="Cube_face_-_left-7" data-name="Cube face - left" class="cls-45" points="154 323.1 160.27 319.48 160.27 183.59 154.62 184.37 154 323.1"/><polygon id="Cube_face_-_left-8" data-name="Cube face - left" class="cls-45" points="318.52 421.47 324.18 418.2 324.18 275.74 318.52 279 318.52 421.47"/><g id="Axonometric_Cube-6" data-name="Axonometric Cube"><polygon id="Cube_face_-_left-9" data-name="Cube face - left" class="cls-45" points="236.68 233.03 237.75 232.42 237.75 369.52 236.68 370.14 236.68 233.03"/><polygon id="Cube_face_-_right-5" data-name="Cube face - right" class="cls-47" points="232.73 367.86 236.68 370.14 236.68 233.03 232.73 230.76 232.73 367.86"/><polygon id="Cube_face_-_top-11" data-name="Cube face - top" class="cls-46" points="236.68 233.03 237.75 232.42 233.8 230.14 232.73 230.76 236.68 233.03"/></g><path class="cls-47" d="M215.91,218.32V360.79l167.45,96.68V315Zm3.55,6.15,160.35,92.58V451.32L219.46,358.74Z" transform="translate(-64.84 -36)"/><polygon id="Cube_face_-_top-12" data-name="Cube face - top" class="cls-46" points="318.52 279 324.18 275.74 156.73 179.06 151.07 182.32 318.52 279"/></g><g id="Axonometric_Cube-7" data-name="Axonometric Cube"><polygon id="Cube_face_-_top-13" data-name="Cube face - top" class="cls-78" points="232.14 364.68 231.71 359.37 159.64 317.76 155.94 319.83 232.14 364.68"/><polygon id="Cube_face_-_left-10" data-name="Cube face - left" class="cls-79" points="156.23 320.06 159.93 317.93 159.93 194.64 154.68 193.03 156.23 320.06"/><polygon class="cls-80" points="229.83 360.91 157.78 319.16 159.04 318.1 229.52 358.79 229.83 360.91"/><polygon id="Cube_face_-_left-11" data-name="Cube face - left" class="cls-81" points="157.79 319.16 159.33 318.27 159.33 194.98 157.75 191.26 157.79 319.16"/><polygon id="Cube_face_-_left-12" data-name="Cube face - left" class="cls-82" points="232.61 370.28 234.21 369.35 234.21 234.17 232.61 235.1 232.61 370.28"/><path class="cls-47" d="M216.66,224.46V359.63l80.78,46.65V271.1Zm5.25,10.11,70.29,40.59v121l-70.29-40.58Z" transform="translate(-64.84 -36)"/><polygon id="Cube_face_-_top-14" data-name="Cube face - top" class="cls-46" points="232.61 235.1 234.21 234.17 153.43 187.53 151.82 188.46 232.61 235.1"/></g><polygon class="cls-48" points="157.07 319.58 227.36 360.16 227.36 239.16 157.07 198.57 157.07 319.58"/><path class="cls-45" d="M293.61,333.67a1.09,1.09,0,0,1,1.1.1,3.43,3.43,0,0,1,1.54,2.67v12.32a1.1,1.1,0,0,1-.45,1l-1,.55-2.17-16.08Z" transform="translate(-64.84 -36)"/><path class="cls-47" d="M293.76,334.33c-.85-.49-1.55-.1-1.55.88v12.32a3.39,3.39,0,0,0,1.54,2.66c.85.49,1.54.1,1.54-.88l0-12.32A3.39,3.39,0,0,0,293.76,334.33Z" transform="translate(-64.84 -36)"/><polygon class="cls-82" points="225.77 307.05 225.79 316.59 224.19 315.66 224.17 306.12 225.77 307.05"/><polygon class="cls-46" points="228.06 302.49 229.66 303.42 226.97 304.97 225.37 304.04 228.06 302.49"/><path class="cls-46" d="M289.21,341.23a3,3,0,0,1,.48-.76,2.34,2.34,0,0,1,.52-.44l1.6.94a1.89,1.89,0,0,0-.52.43,3,3,0,0,0-.48.76,2.31,2.31,0,0,0-.21.89l-1.6-.93A2.26,2.26,0,0,1,289.21,341.23Z" transform="translate(-64.84 -36)"/><path class="cls-45" d="M291.81,341l2.68-1.55V341l-1.68,1a1.67,1.67,0,0,0-.8,1.3l-.69,8.9-.7.41,0-9.54A2.68,2.68,0,0,1,291.81,341Z" transform="translate(-64.84 -36)"/><path class="cls-83" d="M289.69,340.47l1.6.93a3,3,0,0,0-.48.76l-1.6-.93A3,3,0,0,1,289.69,340.47Z" transform="translate(-64.84 -36)"/><g id="Axonometric_Cube-8" data-name="Axonometric Cube"><polygon id="Cube_face_-_top-15" data-name="Cube face - top" class="cls-78" points="313.86 411.86 313.43 406.55 241.36 364.94 237.66 367.01 313.86 411.86"/><polygon id="Cube_face_-_left-13" data-name="Cube face - left" class="cls-79" points="237.95 367.24 241.65 365.11 241.65 241.82 236.4 240.21 237.95 367.24"/><polygon class="cls-80" points="311.55 408.09 239.5 366.34 240.76 365.28 311.24 405.97 311.55 408.09"/><polygon id="Cube_face_-_left-14" data-name="Cube face - left" class="cls-81" points="239.51 366.34 241.05 365.45 241.05 242.16 239.47 238.44 239.51 366.34"/><polygon id="Cube_face_-_left-15" data-name="Cube face - left" class="cls-45" points="314.33 417.46 315.93 416.53 315.93 281.35 314.33 282.28 314.33 417.46"/><path class="cls-47" d="M298.38,271.64V406.82l80.78,46.64V318.28Zm5.25,10.11,70.29,40.59v121l-70.29-40.58Z" transform="translate(-64.84 -36)"/><polygon id="Cube_face_-_top-16" data-name="Cube face - top" class="cls-46" points="314.33 282.28 315.93 281.35 235.15 234.71 233.54 235.64 314.33 282.28"/></g><polygon class="cls-48" points="238.79 366.76 309.08 407.34 309.08 286.34 238.79 245.75 238.79 366.76"/><path class="cls-45" d="M299.79,337.24a1.09,1.09,0,0,1,1.1.1,3.41,3.41,0,0,1,1.54,2.67v12.32a1.06,1.06,0,0,1-.45,1l-1,.56-2.18-16.08Z" transform="translate(-64.84 -36)"/><path class="cls-47" d="M299.94,337.9c-.85-.49-1.54-.1-1.55.88V351.1a3.39,3.39,0,0,0,1.54,2.66c.85.49,1.54.1,1.55-.88V340.56A3.39,3.39,0,0,0,299.94,337.9Z" transform="translate(-64.84 -36)"/><polygon class="cls-82" points="231.95 310.62 231.97 320.16 230.37 319.23 230.35 309.69 231.95 310.62"/><polygon class="cls-46" points="234.24 306.05 235.84 306.99 233.15 308.54 231.55 307.6 234.24 306.05"/><path class="cls-46" d="M295.4,344.79a2.82,2.82,0,0,1,.48-.75,2.1,2.1,0,0,1,.51-.44l1.6.94a2.05,2.05,0,0,0-.52.43,3.27,3.27,0,0,0-.48.76,2.12,2.12,0,0,0-.2.89l-1.6-.93A2.18,2.18,0,0,1,295.4,344.79Z" transform="translate(-64.84 -36)"/><path class="cls-45" d="M298,344.54l2.68-1.55v1.59l-1.68,1a1.71,1.71,0,0,0-.8,1.31l-.69,8.9-.7.41,0-9.54A2.67,2.67,0,0,1,298,344.54Z" transform="translate(-64.84 -36)"/><path class="cls-83" d="M295.88,344l1.59.93a3.27,3.27,0,0,0-.48.76l-1.59-.94A2.82,2.82,0,0,1,295.88,344Z" transform="translate(-64.84 -36)"/></g><path class="cls-67" d="M222.59,354.11c0-1.56-4.05-2.18-6.68-2.43,0,0-2,.07-6.53-.28,0,0,.91,4.4,4.45,4.12C217.63,355.21,222.53,356.44,222.59,354.11Z" transform="translate(-64.84 -36)"/><path class="cls-73" d="M209.69,349.65c-6.17-6.49-21-23.24-21-23.24l-5.06-28.77c-1.61-9.25-11-10.24-14-3.39-1.75,6.31.29,13.35,2.27,20.4,1.55,5.48,3.86,14.05,4.56,16.51a7.39,7.39,0,0,0,2.32,3.6c5.57,4.78,16.23,15.18,24.81,22C205.84,358.74,211.24,352.06,209.69,349.65Z" transform="translate(-64.84 -36)"/><path class="cls-67" d="M224.08,365.45s-6.16.37-7.43.29c-3.81-.24-9.55-7.17-11.86-9s2.26-7.8,4.26-6.75c.91.47,6.86,5.18,6.86,5.18,0,3.48,3,7.25,5.78,9Z" transform="translate(-64.84 -36)"/><path class="cls-32" d="M408.3,530.22s-48.15-1.11-59.11.22c-37.66,4.58-39.75,25.28-20.76,31,7.17,2.16,22,4.26,43.08,4.26l1.55-12.62,42.12-.1C417.3,549.1,409.4,530.37,408.3,530.22Z" transform="translate(-64.84 -36)"/><path class="cls-70" d="M374.47,550.91c-.06-.24-.15-.48-.23-.72h-9.3c-1.1,2.27-2.81,1.55-12.76.54-2.61-.26-7.46-1.19-9.8,1.86-2.09,2.73.26,6.08,2.66,7.21,2,.92,19.26,5.5,22.74,6.07,5,.82,9.27-.43,9-5.58C376.65,556.57,375.37,554,374.47,550.91Z" transform="translate(-64.84 -36)"/><path class="cls-71" d="M374.47,548.25c-.06-.24-.15-.48-.23-.72h-9.3c-1.1,2.27-2.81,1.55-12.76.54-2.61-.26-7.11.08-9.45,3.13-2.09,2.73-.09,4.81,2.31,5.94,2,.92,19.26,5.5,22.74,6.07,5,.82,9.48-.4,8.74-5.5A71.17,71.17,0,0,0,374.47,548.25Z" transform="translate(-64.84 -36)"/><path class="cls-70" d="M404,538.35c2.61,5.52,3.94,8.45,6.48,12.79,1.45,2.48,3.05,2.7,6.17,2.35,7-.8,3.84-9.44,1.31-16.48-.78-2.19-2.1-6-4.15-7.16-2.22-1.29-9.8-2.62-11.17.22a10.18,10.18,0,0,0-.19,3.78A16.05,16.05,0,0,0,404,538.35Z" transform="translate(-64.84 -36)"/><path class="cls-71" d="M404,535.75c2.61,5.52,3.94,8.45,6.48,12.78,1.45,2.48,3.05,2.7,6.17,2.35,7-.79,3.19-10.08.66-17.13-.78-2.19-1.45-5.31-3.5-6.5-2.22-1.3-9.91-.76-11.17,2.13C401.88,531.15,403.26,534.17,404,535.75Z" transform="translate(-64.84 -36)"/><path class="cls-72" d="M419.81,441.85c-.44-1.78-1.85-3.76-3.23-3.9-1.88-.19-23.34.59-32.86,7.86-1.75,1.34-3.07,4.24-3.76,5.58-3.22,6.89-5.88,16.17-7.46,25.72a67,67,0,0,0-.84,12.49,61.66,61.66,0,0,1-1,14.41c-1,4.6-2.6,9-3.9,13.53a53,53,0,0,0-1.88,11.88c-.27,5.33-1.18,14.11-2,20-.52,3.81,11.75,6.15,12.57,3.35,1.9-9.75,9.3-18.15,10.49-28,.65-5.31-1-10.77.14-16,1-4.76,6-13.28,11-23.27,1.09,6.92,2.53,9.54,5.21,18.32.83,2.74,1.21,10.83,1.8,13.64,1.06,5.1,2.85,10.12,3.74,21.37.26,5.45,11.43,4.93,11.43.34a130.94,130.94,0,0,1,1.29-21c1.95-12.66-3.5-20.81-3.66-26.52C416.73,485.08,426.16,467.12,419.81,441.85Z" transform="translate(-64.84 -36)"/><path class="cls-84" d="M391.62,390c-7.8,4.18-12.89,9.55-12.74,18.4.06,3.24,3.21,16.4,3.34,19.89.34,8.81.16,10.34-.79,21.36-.45,8.09,38.18,6,37-9.46a55.63,55.63,0,0,1,.36-9c1-12.8,6.16-26.87,9.09-35.39a11.58,11.58,0,0,0,.24-7.91,11.4,11.4,0,0,0-13-7.46C407.37,381.88,398.7,386.21,391.62,390Z" transform="translate(-64.84 -36)"/><path class="cls-72" d="M417.24,427.48c.18-9.22,3.19-21.61,5.1-34.2.69-4.49-.5-11.82-6.49-13a13.56,13.56,0,0,0-4.65,1.14c13.94,2.33,5.09,13.36,2.75,41.86-2.87,2.38-11.14,5.33-11.14,5.33-1.52-8.19-3.4-16.74-6-26-1.45-5.18-4.67-8.63-9.75-9.73a6.1,6.1,0,0,0-3.45,3c1.13-.14,6.73.73,8.89,7.14,2.83,8.36,4.64,19.72,6.06,27.24,2,10.53-6.08,18.06-16.41,10.71l-4.26,15.36c-1.61,16.39,36.34,7.6,42.67-10.9,0,0-2.36-7.51-1.75-14.19C416,437.05,417.19,430.17,417.24,427.48Z" transform="translate(-64.84 -36)"/><path class="cls-75" d="M403,391.26c5.74-2.16,9.77-5.7,9-7.92a2.78,2.78,0,0,0-2.24-1.49A110.86,110.86,0,0,0,391.62,390l-.48.28a1.73,1.73,0,0,0,.07.85C392,393.37,397.25,393.42,403,391.26Z" transform="translate(-64.84 -36)"/><path class="cls-67" d="M383.72,362.08c0,.61-2.41,3.82-2.65,4.38-.38.9.94,2.19,1,2.5a9.18,9.18,0,0,1-.21,2.73c-.33,1.9-.38,3.81.64,5.2,1.27,1.7,4,1.62,5.45,3.15a6.51,6.51,0,0,1,1.16,1.95c1.12,2.51,2.49,5,3.37,7.58s7.85,1.06,10.77-.28c5.06-2.34,7.22-4.76,5.47-6.69-1.59-1.74-2.75-3-2.8-3.85a3.85,3.85,0,0,1,.72-2.11,33.21,33.21,0,0,0,3.07-6.44,14.58,14.58,0,0,0-7.29-17.95,18.29,18.29,0,0,0-8.55-1.65,9.86,9.86,0,0,0-8.9,5.38A16.22,16.22,0,0,0,383.72,362.08Z" transform="translate(-64.84 -36)"/><path class="cls-85" d="M391.09,363.52c-.32,1.14-2.09,5-1.64,5.92a.76.76,0,0,0,.82.44c.31-.09.48-.4.66-.66,1.86-2.74,5.79-.18,2.84,4.3s-1.3,7.17,1.64,8.44a8.47,8.47,0,0,0,6.16-.2c2.66-.92,3.88-1.47,4.76-2.26,2.29-2,5.71-12.38,5.51-18.2-.38-11.28-8.43-14.27-18.48-13.5-7.5.57-10.39,6.59-8.71,8.65.62.76,1.86,1.1,2.66,1.64C389.51,359.55,391.82,361,391.09,363.52Z" transform="translate(-64.84 -36)"/><path class="cls-67" d="M379.68,413.64c-.8,2.88-2.44,21.95-2.44,21.95s-10.91,3-15.21,3.55c-2-1.8-3.08-3.88-5.31-4.86a13.93,13.93,0,0,0-3.61-1c-1.54-.26-4.26-2-5.3-.38s5.38,4.25,5.38,4.25l-1.25.21a7.56,7.56,0,0,1-5-.91l-5-2.91s0,5.95,7,10.55a17.49,17.49,0,0,0,11.05,2.75,16.69,16.69,0,0,1,4.06-.08c6.16.35,19.9.29,20.73-.07a5.79,5.79,0,0,0,2.6-3c1.13-2.4,4.55-21.62,6.62-28.57Z" transform="translate(-64.84 -36)"/><path class="cls-84" d="M375.11,427.88c-.18,4.77,16.1,6.73,17.08,3.27,1.16-3.73,1.53-11.78,1.67-16.67a25.14,25.14,0,0,0-1.12-8.26,15.73,15.73,0,0,0-6.55-8.48C377.85,392.46,375.1,425.29,375.11,427.88Z" transform="translate(-64.84 -36)"/><path class="cls-74" d="M377.06,351.92c-5.17,6.29,11.57,11.29,11.57,11.29l7-13S382.84,344.91,377.06,351.92Z" transform="translate(-64.84 -36)"/><path class="cls-72" d="M395.31,365.83c9.47,2.12,16.42-.1,16.78-5.34,0,0,.61-17-14.69-17-12.19.66-13.85,13.8-13.85,13.8C382.6,360.37,389.36,364.49,395.31,365.83Z" transform="translate(-64.84 -36)"/><path class="cls-74" d="M399.49,347.09c-2.6-.32-2.41-1.84.18-1.52S402.08,347.41,399.49,347.09Z" transform="translate(-64.84 -36)"/></g></g></g></svg>