<svg id="Layer_1" data-name="Layer 1" xmlns="http://www.w3.org/2000/svg" viewBox="0 0 676.03 564.91"><defs><style>.cls-1{opacity:0.41;}.cls-2,.cls-4{fill:#fabc3d;}.cls-3{opacity:0.88;}.cls-4{opacity:0.31;}.cls-12,.cls-5{fill:#243762;}.cls-6{fill:#fff;}.cls-7{fill:#252730;}.cls-8{fill:#ecf1f7;}.cls-9{fill:#c5d9ff;}.cls-10{fill:#af9cda;opacity:0.33;}.cls-11{fill:#eac178;}.cls-12,.cls-14{opacity:0.29;}.cls-13{fill:#ffcb4a;}.cls-14{fill:#c68d00;}.cls-15{fill:#f7a9b4;}.cls-16{fill:#f9b132;}.cls-17{fill:#f9e1b7;opacity:0.35;}</style></defs><g class="cls-1"><path class="cls-2" d="M686.33,370.63a193.75,193.75,0,0,0-.89-33.11c-5.84-51.61-32.32-100.27-71.28-134.6-13.9-12.25-29.72-23.22-38.77-39.39-15.23-27.23-14.08-58.52-33-85.4a159.9,159.9,0,0,0-77.62-58.69C372-12.7,242.15,39.63,253.84,151.39c0,.4.09,1,.14,1.72a40.68,40.68,0,0,1-39.85,43.29c-85.59,2-159.25,68-175,151.59C29,401.74,45.57,460.66,84.89,498.69c29.36,28.38,68.74,44,108.14,54.69,79,21.49,162.12,26,243.58,17.77,76.24-7.69,156.67-29.61,206-88.27C668.89,451.59,684,411.46,686.33,370.63Z" transform="translate(-10.63 -10.09)"/></g><g class="cls-3"><path class="cls-2" d="M616,375.9a151.85,151.85,0,0,0-.69-25.94c-4.58-40.43-25.32-78.55-55.85-105.44-10.89-9.6-23.28-18.2-30.36-30.86-11.94-21.33-11-45.85-25.85-66.91a125.29,125.29,0,0,0-60.81-46C369.72,75.6,268,116.6,277.15,204.15c0,.31.07.77.11,1.35A31.87,31.87,0,0,1,246,239.4C179,241,121.28,292.68,108.93,358.16c-7.94,42.11,5.06,88.27,35.87,118,23,22.24,53.84,34.46,84.7,42.85,61.89,16.83,127,20.36,190.82,13.92,59.73-6,122.74-23.19,161.36-69.15C602.29,439.32,614.1,407.88,616,375.9Z" transform="translate(-10.63 -10.09)"/></g><circle class="cls-4" cx="647.04" cy="93.45" r="20.93" transform="translate(396.19 691.38) rotate(-76.66)"/><circle class="cls-4" cx="187.33" cy="69.18" r="24.27" transform="translate(-4.68 142.64) rotate(-45)"/><circle class="cls-4" cx="31.35" cy="525.31" r="31.35"/><circle class="cls-2" cx="278.68" cy="166.88" r="111.1"/><path class="cls-5" d="M366.46,257a1,1,0,0,1-.75-.31,1.05,1.05,0,0,1,0-1.5A110,110,0,1,0,210.09,99.54a1.06,1.06,0,0,1-1.5-1.5A112.16,112.16,0,0,1,367.21,256.66,1.05,1.05,0,0,1,366.46,257Z" transform="translate(-10.63 -10.09)"/><circle class="cls-6" cx="278.68" cy="166.88" r="84.54"/><path class="cls-5" d="M289.31,262.57a85.61,85.61,0,0,1,0-171.21,1.06,1.06,0,1,1,0,2.12,83.49,83.49,0,0,0,0,167,1.06,1.06,0,1,1,0,2.12Z" transform="translate(-10.63 -10.09)"/><path class="cls-7" d="M311.22,193.12h-23a8.57,8.57,0,0,1-8.56-8.55V152.68a7.43,7.43,0,0,1,14.86,0v25.58h16.7a7.43,7.43,0,0,1,0,14.86Z" transform="translate(-10.63 -10.09)"/><path class="cls-7" d="M116.83,215.55,236.51,335.23a59.94,59.94,0,0,0,84.77,0l14.31-14.31a13.82,13.82,0,0,0,0-19.56l-48.83-48.84a13.85,13.85,0,0,0-19.57,0l-24.42,24.42a4.88,4.88,0,0,1-6.91,0l-59.23-59.22a4.84,4.84,0,0,1,0-6.83l24.08-24.08a13.83,13.83,0,0,0,0-19.56l-50.16-50.16a13.83,13.83,0,0,0-19.39-.17L117.57,130A60,60,0,0,0,116.83,215.55Z" transform="translate(-10.63 -10.09)"/><path class="cls-8" d="M120.57,132.45l67.25,67.25,2.31-2.3,10.58-10.59a13.83,13.83,0,0,0,0-19.56l-50.16-50.16a13.83,13.83,0,0,0-19.39-.17L117.57,130Z" transform="translate(-10.63 -10.09)"/><path class="cls-5" d="M187.82,201.2l-68-67.95L116,130.12l14.45-14a15,15,0,0,1,20.88.18l50.16,50.16a14.9,14.9,0,0,1,0,21.06ZM119.18,130l2.14,1.73,66.5,66.5L200,186.06A12.77,12.77,0,0,0,200,168L149.8,117.84a12.83,12.83,0,0,0-17.9-.16Z" transform="translate(-10.63 -10.09)"/><path class="cls-8" d="M257.38,267l67.24,67.25,2.31-2.31,10.58-10.58a13.82,13.82,0,0,0,0-19.56l-50.15-50.16a13.83,13.83,0,0,0-19.4-.17l-13.59,13.12Z" transform="translate(-10.63 -10.09)"/><path class="cls-5" d="M324.62,335.7l-67.95-68-3.9-3.13,14.46-14a15,15,0,0,1,20.88.19L338.27,301a14.9,14.9,0,0,1,0,21.06ZM256,264.47l2.15,1.73,66.49,66.5,12.14-12.14a12.77,12.77,0,0,0,0-18.06l-50.15-50.16a12.83,12.83,0,0,0-17.91-.16Z" transform="translate(-10.63 -10.09)"/><line class="cls-8" x1="115.09" y1="114.44" x2="156.07" y2="155.41"/><path class="cls-5" d="M166.7,166.56a1.05,1.05,0,0,1-.75-.31l-41-41a1.07,1.07,0,0,1,1.51-1.51l41,41a1.06,1.06,0,0,1-.75,1.81Z" transform="translate(-10.63 -10.09)"/><line class="cls-8" x1="278.09" y1="277.43" x2="319.06" y2="318.4"/><path class="cls-5" d="M329.69,329.55a1.05,1.05,0,0,1-.75-.31l-41-41a1.06,1.06,0,0,1,1.5-1.5l41,41a1.05,1.05,0,0,1,0,1.5A1,1,0,0,1,329.69,329.55Z" transform="translate(-10.63 -10.09)"/><path class="cls-7" d="M509.5,539l-156.89-23.2a32.47,32.47,0,0,1-27.37-36.87L381.51,98.52a32.47,32.47,0,0,1,36.87-27.37L575.27,94.36a32.46,32.46,0,0,1,27.37,36.87L546.37,511.64A32.46,32.46,0,0,1,509.5,539Z" transform="translate(-10.63 -10.09)"/><rect class="cls-8" x="283.02" y="202.24" width="363.14" height="196.91" transform="translate(88.53 706.2) rotate(-81.59)"/><rect class="cls-2" x="475.54" y="36.1" width="27.25" height="196.91" transform="translate(273.86 588.68) rotate(-81.59)"/><path class="cls-8" d="M434.73,515.33a13,13,0,0,1-1.86-.14,12.68,12.68,0,1,1,1.86.14Zm0-23.31a10.7,10.7,0,1,0,1.57.12A10.38,10.38,0,0,0,434.7,492Z" transform="translate(-10.63 -10.09)"/><path class="cls-8" d="M462.88,103.24a4.09,4.09,0,1,1,4-3.49h0A4.1,4.1,0,0,1,462.88,103.24Zm0-6.06a2,2,0,0,0-1.94,1.68,2,2,0,0,0,.37,1.46,2,2,0,0,0,2.75.41,2,2,0,0,0,.77-1.29h0a2,2,0,0,0-1.65-2.23A1.53,1.53,0,0,0,462.87,97.18Z" transform="translate(-10.63 -10.09)"/><path class="cls-8" d="M526.15,112.59a4.26,4.26,0,0,1-.61,0l-49.69-7.35a4.11,4.11,0,0,1-3.45-4.64,4.09,4.09,0,0,1,4.65-3.45l49.69,7.35a4.09,4.09,0,0,1-.59,8.13Zm-49.7-13.4a2,2,0,0,0-1.95,1.68,2,2,0,0,0,.37,1.46,2,2,0,0,0,1.29.77l49.7,7.35a2,2,0,0,0,1.86-3.11,1.93,1.93,0,0,0-1.29-.78l-49.69-7.35Z" transform="translate(-10.63 -10.09)"/><path class="cls-9" d="M536.22,384.8,400.34,364.7a4.07,4.07,0,0,0-4.6,3.42l-5.21,35.25a4.05,4.05,0,0,0,3.41,4.6l116.17,17.18,12,16.51,2.13-14.42,5.61.83a4.06,4.06,0,0,0,4.6-3.42l5.22-35.25A4.07,4.07,0,0,0,536.22,384.8Z" transform="translate(-10.63 -10.09)"/><path class="cls-5" d="M510.12,426.21H510L393.79,409a5.11,5.11,0,0,1-4.31-5.81L394.69,368a5.1,5.1,0,0,1,5.81-4.31l31.4,4.65a1.06,1.06,0,0,1-.31,2.1l-31.4-4.65a3,3,0,0,0-3.4,2.52l-5.21,35.25a2.94,2.94,0,0,0,.56,2.22,3,3,0,0,0,2,1.18L510.27,424.1a1.06,1.06,0,0,1-.15,2.11Z" transform="translate(-10.63 -10.09)"/><path class="cls-9" d="M557.83,238.73,422,218.64a4.05,4.05,0,0,0-4.6,3.41l-5.21,35.25a4.05,4.05,0,0,0,3.41,4.6l116.17,17.18,12,16.51,2.13-14.42,5.61.83a4.05,4.05,0,0,0,4.6-3.42l5.21-35.25A4.05,4.05,0,0,0,557.83,238.73Z" transform="translate(-10.63 -10.09)"/><path class="cls-5" d="M544.36,298.32l-13.24-18.25L415.39,263a5.11,5.11,0,0,1-4.3-5.8,1.06,1.06,0,1,1,2.1.31,3,3,0,0,0,2.51,3.39L532.32,278.1,543,292.86l1.91-12.9,6.65,1a3,3,0,0,0,3.4-2.52L558.44,255a1.08,1.08,0,0,1,1.21-.9,1.06,1.06,0,0,1,.89,1.21l-3.46,23.45a5.11,5.11,0,0,1-5.81,4.31l-4.56-.68Z" transform="translate(-10.63 -10.09)"/><path class="cls-2" d="M385.83,284.15l135.88,20.1a4.06,4.06,0,0,1,3.42,4.6l-5.22,35.25a4,4,0,0,1-4.6,3.42L399.14,330.33l-16.23,12.34L385,328.25l-5.6-.83a4.06,4.06,0,0,1-3.42-4.6l5.22-35.25A4.05,4.05,0,0,1,385.83,284.15Z" transform="translate(-10.63 -10.09)"/><path class="cls-5" d="M515.92,348.62a4.87,4.87,0,0,1-.76-.06l-72.52-10.72a1.06,1.06,0,0,1,.31-2.1l72.52,10.73a3,3,0,0,0,2.22-.56,2.94,2.94,0,0,0,1.17-2l5.22-35.25a3,3,0,0,0-2.52-3.4,1.06,1.06,0,0,1-.9-1.2,1.08,1.08,0,0,1,1.21-.9,5.13,5.13,0,0,1,4.31,5.81L521,344.26a5.09,5.09,0,0,1-5,4.36Z" transform="translate(-10.63 -10.09)"/><rect class="cls-6" x="423.76" y="365.33" width="33.41" height="196.91" transform="translate(-93.4 821.57) rotate(-81.59)"/><path class="cls-9" d="M374.27,453.7a11.85,11.85,0,1,1-10-13.46A11.85,11.85,0,0,1,374.27,453.7Z" transform="translate(-10.63 -10.09)"/><path class="cls-10" d="M517.92,485.81a10.21,10.21,0,0,1-1.55-.12L390.14,467a10.56,10.56,0,1,1,3.09-20.9l126.23,18.67a10.57,10.57,0,0,1-1.54,21Zm-1.24-2.22a8.44,8.44,0,1,0,2.47-16.7L392.92,448.22a8.46,8.46,0,0,0-9.59,7.11,8.46,8.46,0,0,0,7.12,9.59Z" transform="translate(-10.63 -10.09)"/><path class="cls-6" d="M405.88,126a4.26,4.26,0,0,1-.61,0,4.16,4.16,0,0,1-3.5-4.72,4.16,4.16,0,0,1,4.72-3.5A4.16,4.16,0,0,1,410,122.5h0A4.17,4.17,0,0,1,405.88,126Zm0-6.19a2.06,2.06,0,0,0-2,1.74,2,2,0,0,0,.38,1.51,2,2,0,0,0,1.34.8,2,2,0,0,0,2.3-1.71h0a2,2,0,0,0-1.71-2.31A1.53,1.53,0,0,0,405.88,119.85Z" transform="translate(-10.63 -10.09)"/><path class="cls-6" d="M417.38,127.74a4.4,4.4,0,0,1-.62,0,4.16,4.16,0,1,1,1.22-8.22,4.14,4.14,0,0,1,3.5,4.72,4.13,4.13,0,0,1-4.1,3.54Zm0-6.19a2,2,0,0,0-2,1.74,2,2,0,0,0,4,.6h0a2,2,0,0,0-1.71-2.31A1.53,1.53,0,0,0,417.37,121.55Z" transform="translate(-10.63 -10.09)"/><path class="cls-6" d="M428.65,129.41a4.3,4.3,0,0,1-.62,0,4.2,4.2,0,1,1,.62,0Zm0-6.19a2.06,2.06,0,0,0-1.21.4,2,2,0,0,0-.8,1.34,2,2,0,1,0,2.31-1.72Z" transform="translate(-10.63 -10.09)"/><path class="cls-5" d="M587.21,163.89h-.16l-180.3-26.67a1.07,1.07,0,0,1-.9-1.21,1.06,1.06,0,0,1,1.21-.89l180.3,26.67a1.06,1.06,0,0,1-.15,2.11Z" transform="translate(-10.63 -10.09)"/><path class="cls-6" d="M512,392.92h-.16l-96.2-14.23a1.06,1.06,0,0,1,.31-2.1l96.2,14.23a1.06,1.06,0,0,1-.15,2.11Z" transform="translate(-10.63 -10.09)"/><path class="cls-6" d="M455.08,396.23l-.15,0-40.95-6a1.06,1.06,0,0,1-.89-1.21,1,1,0,0,1,1.2-.89l40.95,6.06a1.06,1.06,0,0,1-.16,2.11Z" transform="translate(-10.63 -10.09)"/><path class="cls-6" d="M441.29,405.16h-.16l-28.74-4.25a1,1,0,0,1-.89-1.2,1.06,1.06,0,0,1,1.2-.9l28.74,4.25a1.08,1.08,0,0,1,.9,1.21A1.06,1.06,0,0,1,441.29,405.16Z" transform="translate(-10.63 -10.09)"/><path class="cls-6" d="M510.34,404.4h-.15l-42.32-6.26a1.06,1.06,0,0,1-.89-1.21,1,1,0,0,1,1.2-.89l42.32,6.26a1,1,0,0,1,.89,1.2A1.06,1.06,0,0,1,510.34,404.4Z" transform="translate(-10.63 -10.09)"/><path class="cls-6" d="M500.29,313.09h-.15l-96.21-14.23a1.06,1.06,0,0,1-.89-1.21,1,1,0,0,1,1.2-.89L500.45,311a1.06,1.06,0,0,1-.16,2.11Z" transform="translate(-10.63 -10.09)"/><path class="cls-6" d="M443.34,316.39h-.16l-40.94-6.06a1.06,1.06,0,0,1-.9-1.2,1.08,1.08,0,0,1,1.21-.9l40.94,6.06a1.06,1.06,0,0,1-.15,2.11Z" transform="translate(-10.63 -10.09)"/><path class="cls-6" d="M485.88,333.66h-.16l-83-12.88a1.05,1.05,0,0,1-.88-1.21,1.07,1.07,0,0,1,1.21-.89l83,12.88a1.06,1.06,0,0,1-.17,2.11Z" transform="translate(-10.63 -10.09)"/><path class="cls-6" d="M498.6,324.57l-.16,0-42.32-6.26a1.06,1.06,0,1,1,.31-2.09l42.32,6.26a1.06,1.06,0,0,1-.15,2.11Z" transform="translate(-10.63 -10.09)"/><path class="cls-2" d="M403.28,151.63l135.88,20.1a4.06,4.06,0,0,1,3.42,4.6l-5.22,35.25a4,4,0,0,1-4.59,3.42L416.59,197.81l-16.23,12.34,2.13-14.42-5.6-.83a4.06,4.06,0,0,1-3.42-4.6l5.22-35.25A4.05,4.05,0,0,1,403.28,151.63Z" transform="translate(-10.63 -10.09)"/><path class="cls-5" d="M537.36,212.64h-.15a1.06,1.06,0,0,1-.9-1.2l5.22-35.25a3,3,0,0,0-2.52-3.4L454.64,160.3a1,1,0,0,1-.89-1.2,1.08,1.08,0,0,1,1.21-.9l84.36,12.48a5.11,5.11,0,0,1,4.31,5.81l-5.22,35.25A1.06,1.06,0,0,1,537.36,212.64Z" transform="translate(-10.63 -10.09)"/><path class="cls-6" d="M517.74,180.57h-.15l-96.21-14.23a1.06,1.06,0,0,1-.89-1.21,1,1,0,0,1,1.2-.89l96.21,14.23a1.06,1.06,0,0,1-.16,2.11Z" transform="translate(-10.63 -10.09)"/><path class="cls-6" d="M460.79,183.87h-.16l-40.94-6.06a1.05,1.05,0,0,1-.9-1.2,1.07,1.07,0,0,1,1.21-.9l40.94,6.06a1.08,1.08,0,0,1,.9,1.21A1.06,1.06,0,0,1,460.79,183.87Z" transform="translate(-10.63 -10.09)"/><path class="cls-6" d="M503.33,201.14h-.16l-83-12.88a1.05,1.05,0,0,1-.88-1.21,1.07,1.07,0,0,1,1.21-.89l83,12.88a1.06,1.06,0,0,1-.17,2.11Z" transform="translate(-10.63 -10.09)"/><path class="cls-6" d="M516.05,192h-.16l-42.32-6.26a1.06,1.06,0,0,1,.31-2.1l42.32,6.26a1.08,1.08,0,0,1,.9,1.21A1.06,1.06,0,0,1,516.05,192Z" transform="translate(-10.63 -10.09)"/><path class="cls-6" d="M533.73,248.21l-.16,0L437.37,234a1.06,1.06,0,1,1,.31-2.1l96.21,14.23a1.07,1.07,0,0,1-.16,2.12Z" transform="translate(-10.63 -10.09)"/><path class="cls-6" d="M476.78,251.51h-.16l-40.95-6.06a1.06,1.06,0,0,1,.31-2.1l40.95,6.06a1.06,1.06,0,0,1-.15,2.11Z" transform="translate(-10.63 -10.09)"/><path class="cls-6" d="M463,260.45l-.16,0-28.74-4.25a1,1,0,0,1-.89-1.2,1.06,1.06,0,0,1,1.2-.9l28.74,4.25a1.08,1.08,0,0,1,.9,1.21A1.06,1.06,0,0,1,463,260.45Z" transform="translate(-10.63 -10.09)"/><path class="cls-6" d="M532,259.68h-.15l-42.32-6.26a1.06,1.06,0,1,1,.31-2.1l42.32,6.26a1.06,1.06,0,0,1-.16,2.11Z" transform="translate(-10.63 -10.09)"/><path class="cls-11" d="M338.11,506.39,120.17,530.94a7.63,7.63,0,0,1-8.44-6.72L96,384.6a.42.42,0,0,1,.36-.45L328.61,358a.39.39,0,0,1,.44.35L344.79,498A7.58,7.58,0,0,1,338.11,506.39Z" transform="translate(-10.63 -10.09)"/><path class="cls-5" d="M119.31,532.05a8.7,8.7,0,0,1-8.63-7.72L95,384.72a1.46,1.46,0,0,1,1.29-1.62l232.25-26.17a1.46,1.46,0,0,1,1.62,1.29l15.73,139.67a8.64,8.64,0,0,1-7.61,9.55L120.28,532A7.88,7.88,0,0,1,119.31,532.05ZM97.13,385.13l15.66,139a6.55,6.55,0,0,0,7.26,5.79L338,505.33l.12,1.06-.12-1.06a6.51,6.51,0,0,0,5.74-7.2l-15.66-139Z" transform="translate(-10.63 -10.09)"/><path class="cls-12" d="M327.89,506.39,130.82,530.94c-4.18.47,61.07-83.23,60.6-87.41L96,384.6a.42.42,0,0,1,.36-.45L328.61,358a.39.39,0,0,1,.44.35L249.6,437C250.07,441.13,332.05,505.92,327.89,506.39Z" transform="translate(-10.63 -10.09)"/><path class="cls-13" d="M96.36,384.15l96-95a17.45,17.45,0,0,1,21.46-2.45L328,357.62a.24.24,0,0,1-.11.44L96,384.2" transform="translate(-10.63 -10.09)"/><path class="cls-5" d="M96.08,385.25l-.18-1.56-.29-.29.23-.23v0h0l95.78-94.73a18.46,18.46,0,0,1,22.77-2.59l114.16,70.9a1.3,1.3,0,0,1-.54,2.4ZM204.67,285.16a16.31,16.31,0,0,0-11.52,4.76L99.28,382.76l226.17-25.49L213.3,287.62A16.42,16.42,0,0,0,204.67,285.16Z" transform="translate(-10.63 -10.09)"/><path class="cls-14" d="M94.36,383.15l96-95a17.45,17.45,0,0,1,21.46-2.45L326,356.62a.24.24,0,0,1-.11.44L94,383.2" transform="translate(-10.63 -10.09)"/><path class="cls-15" d="M203,428.89l-72.2,100.45,197.07-22.21-92.73-81.86A21.81,21.81,0,0,0,203,428.89Z" transform="translate(-10.63 -10.09)"/><path class="cls-5" d="M128.57,530.66l73.59-102.39.86.62-.86-.62a22.86,22.86,0,0,1,33.7-3.8l94.53,83.45Zm92.15-109.79a20.17,20.17,0,0,0-2.32.13,20.78,20.78,0,0,0-14.52,8.51L133.08,528,325.4,506.34l-90.95-80.28A20.76,20.76,0,0,0,220.72,420.87Z" transform="translate(-10.63 -10.09)"/><path class="cls-6" d="M108.08,315.34l151.8-17.1c9.95-1.12,18.8,5,19.78,13.61l9.75,86.59-42.21,38.8-55.78,6.29-55.1-34.46-9.45-83.9Z" transform="translate(-10.63 -10.09)"/><path class="cls-5" d="M191.17,444.62l-55.85-34.93-9.44-83.84-14.46-12,148.34-16.72a20.59,20.59,0,0,1,14,3.33,15.7,15.7,0,0,1,7,11.22l9.82,87.13-42.87,39.4Zm-53.85-36.18,54.35,34,55.07-6.2L288.3,398,278.6,312a13.59,13.59,0,0,0-6.07-9.71,18.4,18.4,0,0,0-12.53-3L111.65,316l16.21,8.48Z" transform="translate(-10.63 -10.09)"/><path class="cls-12" d="M203,420.22l-72.2,109.12,197.07-22.21L235.16,416.6A21.81,21.81,0,0,0,203,420.22Z" transform="translate(-10.63 -10.09)"/><path class="cls-16" d="M203,428.89l-72.2,100.45,197.07-22.21-92.73-81.86A21.81,21.81,0,0,0,203,428.89Z" transform="translate(-10.63 -10.09)"/><path class="cls-5" d="M128.57,530.66l73.59-102.39.86.62-.86-.62a22.86,22.86,0,0,1,33.7-3.8l94.53,83.45Zm92.15-109.79a20.17,20.17,0,0,0-2.32.13,20.78,20.78,0,0,0-14.52,8.51L133.08,528,325.4,506.34l-90.95-80.28A20.76,20.76,0,0,0,220.72,420.87Z" transform="translate(-10.63 -10.09)"/><path class="cls-17" d="M210,451.12l-53,73.77,144.73-16.31-68.1-60.12A16,16,0,0,0,210,451.12Z" transform="translate(-10.63 -10.09)"/><line class="cls-15" x1="85.81" y1="374.26" x2="180.79" y2="433.44"/><rect class="cls-5" x="142.87" y="357.98" width="2.13" height="111.91" transform="translate(-294.13 307.09) rotate(-58.07)"/><line class="cls-15" x1="318.4" y1="348.05" x2="238.97" y2="426.88"/><rect class="cls-5" x="233.36" y="396.49" width="111.91" height="2.12" transform="translate(-206.74 309.25) rotate(-44.8)"/><path class="cls-8" d="M131.07,363.83l-26.49,3L100.32,329A12.74,12.74,0,0,1,111.54,315l1.21-.13A12.71,12.71,0,0,1,126.81,326Z" transform="translate(-10.63 -10.09)"/><path class="cls-5" d="M103.64,368l-4.37-38.85a13.78,13.78,0,0,1,12.15-15.24l1.21-.14a13.78,13.78,0,0,1,15.24,12.16l4.38,38.85ZM114.2,315.8a11.73,11.73,0,0,0-1.33.07l-1.21.14a11.65,11.65,0,0,0-10.28,12.89l4.14,36.74,24.38-2.74-4.14-36.75A11.66,11.66,0,0,0,114.2,315.8Z" transform="translate(-10.63 -10.09)"/><path class="cls-5" d="M149.06,344.16a1.07,1.07,0,0,1-1.05-1,1.05,1.05,0,0,1,.93-1.17l110-12.39a1,1,0,0,1,1.17.93,1.06,1.06,0,0,1-.93,1.18l-110,12.39Z" transform="translate(-10.63 -10.09)"/><path class="cls-5" d="M153.27,381.54a1.06,1.06,0,0,1-.11-2.11l110-12.39a1.06,1.06,0,0,1,.24,2.11l-110,12.39Z" transform="translate(-10.63 -10.09)"/><path class="cls-5" d="M151.14,362.63a1.06,1.06,0,0,1-.12-2.11l47.53-5.36a1.08,1.08,0,0,1,1.18.94,1.07,1.07,0,0,1-.94,1.17l-47.53,5.36Z" transform="translate(-10.63 -10.09)"/><path class="cls-5" d="M211.11,355.88a1.06,1.06,0,0,1-.11-2.12l50-5.63a1.06,1.06,0,0,1,.24,2.11l-50,5.63Z" transform="translate(-10.63 -10.09)"/><path class="cls-5" d="M155.66,402.75a1.06,1.06,0,0,1-.12-2.12l47.53-5.35a1.06,1.06,0,1,1,.24,2.11l-47.53,5.35Z" transform="translate(-10.63 -10.09)"/></svg>