<svg id="Layer_1" data-name="Layer 1" xmlns="http://www.w3.org/2000/svg" viewBox="0 0 424.22 410.92"><defs><style>.cls-1,.cls-5{fill:#ebebeb;}.cls-2{fill:#c7c7c7;}.cls-3{fill:#dbdbdb;}.cls-12,.cls-13,.cls-4{fill:#fff;}.cls-5{opacity:0.5;}.cls-12,.cls-13,.cls-5,.cls-9{isolation:isolate;}.cls-6{fill:#a6a6a6;}.cls-7{fill:#263238;}.cls-8{fill:#f7eded;}.cls-11,.cls-9{opacity:0.1;}.cls-10{fill:#37474f;}.cls-12{opacity:0.6;}.cls-13{opacity:0.4;}.cls-14{fill:#f7a9a0;}.cls-15{fill:#455a64;}.cls-16{fill:none;}.cls-17{opacity:0.2;}.cls-18{fill:#ff9bbc;}</style></defs><g id="freepik--background-complete--inject-7"><path class="cls-1" d="M129.41,316.93l-13.2.28-6.71.11c-2.24.05-4.5,0-6.75.06h-.44v-.45l-.06-11.25v-.5h.5l13.33.06c4.44,0,8.89.12,13.33.17h.29v.27c0,1.91-.08,3.82-.13,5.7Zm0,0-.14-5.69c-.05-1.89-.11-3.74-.13-5.58l.27.27c-4.44.06-8.89.16-13.33.17l-13.33.06.51-.5-.05,11.27-.46-.45h6.6l6.62.11Z" transform="translate(-82.37 -54.63)"/><rect class="cls-1" x="5.52" y="265.24" width="26.66" height="11.27"/><path class="cls-1" d="M198.64,207.59l-13.21.28-6.7.11h-7.19v-.45l-.06-11.27v-.5h.5l13.33.06c4.45,0,8.89.11,13.33.17h.28v.27c0,1.91-.09,3.81-.14,5.69Zm0,0-.14-5.7c0-1.87-.11-3.73-.13-5.57l.27.27c-4.44,0-8.88.16-13.33.16l-13.33.08.51-.51v11.27l-.46-.46c2.2,0,4.39,0,6.6.07l6.62.11Z" transform="translate(-82.37 -54.63)"/><rect class="cls-1" x="74.74" y="155.9" width="26.66" height="11.27"/><path class="cls-1" d="M401.12,144.78l-13.22.29-6.71.11c-2.23,0-4.49,0-6.73.06H374v-.46L374,133.52V133h.51l13.33.07c4.44,0,8.88.12,13.33.17h.27v.27c0,1.91-.08,3.81-.13,5.69Zm0,0L401,139.1c-.05-1.89-.12-3.74-.13-5.58l.27.27c-4.45,0-8.89.16-13.33.17L374.5,134l.5-.5-.06,11.26-.44-.45c2.19,0,4.39,0,6.58.06l6.63.11Z" transform="translate(-82.37 -54.63)"/><path class="cls-1" d="M169,207.59l-13.22.28L149,208h-7.19V195.76h.51l13.33.06c4.44,0,8.88.11,13.33.17h.27v.27c0,1.91-.09,3.81-.13,5.69Zm0,0-.14-5.7c0-1.87-.12-3.73-.14-5.57l.28.27c-4.45,0-8.89.16-13.33.16l-13.33.08.5-.51-.06,11.27-.44-.46c2.2,0,4.38,0,6.59.07l6.62.11Z" transform="translate(-82.37 -54.63)"/><path class="cls-1" d="M482.55,277.57l-13.21.28-6.71.11h-7.19v-.45l-.06-11.27v-.5h.51l13.33.06c4.45,0,8.89.11,13.33.16h.28v.27c0,1.92-.09,3.81-.13,5.69Zm0,0-.14-5.7c0-1.87-.11-3.72-.13-5.57l.27.28c-4.44,0-8.88.16-13.33.16l-13.33.07.5-.51v11.27l-.45-.45c2.19,0,4.39,0,6.59.06l6.63.11Z" transform="translate(-82.37 -54.63)"/><rect class="cls-1" x="385.84" y="226.76" width="26.66" height="11.27"/><path class="cls-1" d="M487.17,75,474,75.3l-6.71.11h-7.16V75L460,63.69v-.51h.5l13.33.06c4.44,0,8.89.11,13.33.18h.27v.27c0,1.91-.08,3.81-.13,5.69Zm0,0-.14-5.7c0-1.87-.11-3.72-.13-5.56l.27.27c-4.44,0-8.89.16-13.33.17l-13.33.06.5-.5L461,75l-.44-.45c2.19,0,4.39,0,6.58.06l6.63.11Z" transform="translate(-82.37 -54.63)"/><rect class="cls-1" x="393.01" y="23.33" width="26.66" height="11.27"/><rect class="cls-1" x="5.52" y="9.12" width="26.66" height="11.27"/><polygon class="cls-1" points="101.78 313.65 3.95 313.65 0 235.81 105.72 235.81 101.78 313.65"/><path class="cls-2" d="M94,299h82.55l-1.49,27H95.7Zm81.55,1H95l1.65,25.11h77.53Z" transform="translate(-82.37 -54.63)"/><path class="cls-2" d="M95.62,332.76h77.52l-1.22,24.39H97.17Zm76.51,1H96.62L98,356.24H171Z" transform="translate(-82.37 -54.63)"/><path class="cls-2" d="M126.88,309h15.05l-.85,6.53H127.71Zm13.91,1H128l.6,4.6H140.2Z" transform="translate(-82.37 -54.63)"/><path class="cls-2" d="M126.88,341.69h15.05l-.85,6.53H127.71Zm13.91,1H128l.6,4.61H140.2Z" transform="translate(-82.37 -54.63)"/><polygon class="cls-1" points="84.77 313.65 85.96 322.12 88.36 339.16 93.04 339.16 93.04 313.65 84.77 313.65"/><polygon class="cls-2" points="84.77 313.65 85.96 322.12 93.04 322.12 93.04 313.65 84.77 313.65"/><polygon class="cls-1" points="20.95 313.65 19.76 322.12 17.37 339.16 12.69 339.16 12.69 313.65 20.95 313.65"/><polygon class="cls-2" points="20.95 313.65 19.76 322.12 12.69 322.12 12.69 313.65 20.95 313.65"/><polygon class="cls-1" points="114.95 84.49 78.26 112.46 42.37 65.36 69.6 44.6 79.05 37.39 85.89 46.37 114.95 84.49"/><rect class="cls-3" x="130.94" y="113.63" width="37.58" height="1.52" transform="translate(-121.06 59.57) rotate(-37.32)"/><rect class="cls-3" x="133.27" y="116.68" width="37.58" height="1.52" transform="translate(-122.43 61.61) rotate(-37.32)"/><rect class="cls-3" x="135.6" y="119.73" width="37.58" height="1.52" transform="translate(-123.81 63.64) rotate(-37.32)"/><rect class="cls-3" x="137.92" y="122.77" width="37.58" height="1.52" transform="translate(-125.18 65.68) rotate(-37.32)"/><rect class="cls-3" x="139.14" y="125.7" width="37.81" height="1.53" transform="translate(-126.68 67.1) rotate(-37.33)"/><rect class="cls-3" x="142.58" y="128.89" width="37.58" height="1.52" transform="translate(-127.93 69.75) rotate(-37.32)"/><rect class="cls-3" x="144.9" y="131.95" width="37.58" height="1.52" transform="translate(-129.31 71.78) rotate(-37.32)"/><rect class="cls-3" x="147.23" y="135" width="37.58" height="1.52" transform="translate(-130.68 73.82) rotate(-37.32)"/><rect class="cls-3" x="149.56" y="138.04" width="37.58" height="1.52" transform="translate(-132.05 75.85) rotate(-37.32)"/><rect class="cls-3" x="151.88" y="141.09" width="37.58" height="1.52" transform="translate(-133.42 77.89) rotate(-37.32)"/><rect class="cls-3" x="154.21" y="144.15" width="37.58" height="1.52" transform="translate(-134.8 79.93) rotate(-37.32)"/><rect class="cls-3" x="155.28" y="147.03" width="37.81" height="1.53" transform="translate(-136.31 81.26) rotate(-37.33)"/><polygon class="cls-1" points="134.89 99.11 89.18 105.31 81.21 46.63 115.16 42.02 128.44 51.61 134.89 99.11"/><polygon class="cls-3" points="115.16 42.02 128.44 51.61 116.67 53.21 115.16 42.02"/><rect class="cls-3" x="169.97" y="108.23" width="25.6" height="1.52" transform="translate(-95 -29.9) rotate(-7.48)"/><rect class="cls-3" x="169.88" y="112.57" width="25.64" height="1.52" transform="translate(-95.95 -29.02) rotate(-7.73)"/><rect class="cls-3" x="171.04" y="115.84" width="25.6" height="1.52" transform="translate(-95.98 -29.7) rotate(-7.48)"/><rect class="cls-3" x="170.86" y="119.37" width="37.58" height="1.52" transform="translate(-96.8 -28.02) rotate(-7.73)"/><rect class="cls-3" x="171.37" y="123.17" width="37.58" height="1.52" transform="matrix(0.99, -0.13, 0.13, 0.99, -97.31, -27.92)"/><rect class="cls-3" x="171.88" y="126.97" width="37.58" height="1.52" transform="translate(-97.82 -27.82) rotate(-7.73)"/><rect class="cls-3" x="172.4" y="130.78" width="37.58" height="1.52" transform="translate(-98.32 -27.71) rotate(-7.73)"/><rect class="cls-3" x="172.92" y="134.58" width="37.58" height="1.52" transform="translate(-98.83 -27.61) rotate(-7.73)"/><rect class="cls-3" x="173.43" y="138.39" width="37.58" height="1.52" transform="translate(-99.34 -27.51) rotate(-7.73)"/><rect class="cls-3" x="173.95" y="142.19" width="37.58" height="1.52" transform="translate(-99.84 -27.4) rotate(-7.73)"/><rect class="cls-3" x="174.47" y="146" width="37.58" height="1.52" transform="translate(-100.35 -27.3) rotate(-7.73)"/><rect class="cls-3" x="174.99" y="149.8" width="37.58" height="1.52" transform="translate(-100.86 -27.19) rotate(-7.73)"/><circle class="cls-1" cx="429.18" cy="99.28" r="37.9" transform="translate(180.83 452.7) rotate(-80.89)"/><circle class="cls-3" cx="348.54" cy="45.53" r="36.15"/><circle class="cls-4" cx="430.93" cy="100.15" r="33.87" transform="translate(-26.97 279.42) rotate(-45)"/><path class="cls-5" d="M464,92.93c-15.43,9.35-40.78,24.68-54.95,33.09a33.87,33.87,0,0,1-9.25-12.46l46.86-43.47A33.94,33.94,0,0,1,464,92.93Z" transform="translate(-82.37 -54.63)"/><path class="cls-5" d="M464.76,101.3a33.14,33.14,0,0,1-2.24,11l-42.28,20a33.2,33.2,0,0,1-5.34-2.3C427.7,122.62,451,109.2,464.76,101.3Z" transform="translate(-82.37 -54.63)"/><rect class="cls-2" x="348.22" y="14.07" width="0.65" height="5.13"/><rect class="cls-2" x="416.15" y="72.56" width="0.65" height="5.13" transform="translate(-64.13 163.68) rotate(-30)"/><rect class="cls-2" x="405.58" y="83.11" width="0.65" height="5.13" transform="translate(46.38 339.74) rotate(-60)"/><rect class="cls-2" x="317.13" y="45.16" width="5.13" height="0.65"/><rect class="cls-2" x="403.36" y="114.2" width="5.13" height="0.65" transform="translate(-85.24 163.68) rotate(-30)"/><rect class="cls-2" x="413.92" y="124.77" width="5.13" height="0.65" transform="translate(17.75 368.84) rotate(-60.04)"/><rect class="cls-2" x="348.22" y="71.77" width="0.65" height="5.13"/><rect class="cls-2" x="445" y="122.54" width="0.65" height="5.13" transform="translate(-85.26 184.8) rotate(-30)"/><rect class="cls-2" x="455.54" y="111.95" width="0.65" height="5.13" transform="translate(46.39 397.43) rotate(-60)"/><rect class="cls-2" x="374.83" y="45.16" width="5.13" height="0.65"/><rect class="cls-2" x="453.34" y="85.39" width="5.13" height="0.65" transform="translate(-64.15 184.81) rotate(-30)"/><rect class="cls-2" x="442.78" y="74.81" width="5.13" height="0.65" transform="translate(75.42 368.78) rotate(-60.03)"/><polygon class="cls-2" points="349.04 16.4 350.15 47.78 346.94 47.74 348.17 16.39 349.04 16.4"/><polygon class="cls-6" points="368.58 34.55 347.47 48.02 345.93 45.2 368.16 33.79 368.58 34.55"/><path class="cls-2" d="M432,100.12a1.1,1.1,0,1,1-2.2,0A1.09,1.09,0,0,1,430.88,99a1.1,1.1,0,0,1,1.13,1.06Z" transform="translate(-82.37 -54.63)"/></g><g id="freepik--Shadows--inject-7"><ellipse class="cls-1" cx="212.59" cy="390.42" rx="164.14" ry="20.5"/></g><g id="freepik--Floor--inject-7"><polygon class="cls-7" points="1.97 339.44 54.63 339.2 107.28 339.11 212.59 338.94 317.9 339.11 370.56 339.2 423.2 339.44 370.56 339.68 317.9 339.77 212.59 339.94 107.28 339.77 54.63 339.68 1.97 339.44"/></g><g id="freepik--Plant--inject-7"><path class="cls-8" d="M460.9,238.79s-21.82-3-16.72-29.4C444.18,209.39,468.56,214.87,460.9,238.79Z" transform="translate(-82.37 -54.63)"/><path class="cls-9" d="M460.9,238.79s-21.82-3-16.72-29.4C444.18,209.39,468.56,214.87,460.9,238.79Z" transform="translate(-82.37 -54.63)"/><path class="cls-7" d="M459.8,233.28c-.43-1.33-.93-2.64-1.49-3.92l-.06-.5-.09-1.09c-.06-.78-.11-1.57-.15-2.35-.09-1.58-.19-3.15-.22-4.73a.07.07,0,0,0-.13,0v4.72c0,.79.08,1.58.13,2.36v.53a45.88,45.88,0,0,0-4.38-7.48c-.74-1-1.54-2-2.39-3s-1.78-2-2.66-2.92c-.05-.07-.15,0-.09.09a38.88,38.88,0,0,1,4.2,5.59c.67,1,1.29,2,1.89,3.08l-.2-.08-.78-.32-1.78-.67-3.52-1.3c-.07,0-.12.09,0,.12,1.16.46,2.31,1,3.46,1.44l1.69.74.86.35a3.49,3.49,0,0,0,.57.2c.44.78.87,1.58,1.28,2.39a59,59,0,0,1,2.67,6.29c.05.15.1.3.16.45a13.49,13.49,0,0,0-1.8-.86l-2.25-1c-1.53-.71-3-1.42-4.52-2.25-.07,0-.14.07-.06.11,1.5.83,3,1.7,4.47,2.51.74.41,1.5.81,2.27,1.18a7.4,7.4,0,0,0,2,.82,25.78,25.78,0,0,1,1.43,6.19c.24,3,.22,6,.29,9h.08c.21-2.71.33-5.45.34-8.17A23.67,23.67,0,0,0,459.8,233.28Z" transform="translate(-82.37 -54.63)"/><path class="cls-7" d="M456.44,217.8a26.63,26.63,0,0,0-.22,4.64m.07,0c.09-1.54.1-3,.28-4.61,0-.08-.12-.11-.13,0Z" transform="translate(-82.37 -54.63)"/><path class="cls-7" d="M450.2,219.1a18.19,18.19,0,0,1-2.8-1.38c-.08-.05-.14.07-.07.12a11.4,11.4,0,0,0,2.84,1.35S450.25,219.1,450.2,219.1Z" transform="translate(-82.37 -54.63)"/><path class="cls-7" d="M461.6,280.6c0-2.41-.06-4.82-.09-7.23q-.08-12-.26-24-.17-9.54-.44-19.07c-.27-9.52,0-.06-.06-.08V225s-.06-.07-.11-.07-.1,0-.1.08v5.21s-.05,0-.05.07c-.32,11.32-.62,22.63-.68,34v6.9q-.12,11.07-.09,22.15v3.52c0,6.75.06,13.5.07,20.25,0,.36.41.54.83.56s1-.18,1-.59c0-7.44.05-14.89.05-22.33C461.62,290,461.64,285.29,461.6,280.6Z" transform="translate(-82.37 -54.63)"/><path class="cls-8" d="M452.48,273.28S442,265.5,432,270.75s-11.53,25.52-11.53,25.52,14.63,2.08,23.84-6.68C453.22,281.13,452.48,273.28,452.48,273.28Z" transform="translate(-82.37 -54.63)"/><path class="cls-7" d="M455.34,273.75a12.56,12.56,0,0,0-6-.79,9.09,9.09,0,0,0-1.29-.12l-1.48-.11-3-.22c-2.07-.16-4.14-.29-6.21-.49a.07.07,0,0,0,0,.13c2,.27,4.09.56,6.13.76,1.06.11,2.12.22,3.17.29l.77.08c-.31.07-.62.14-.93.23a24.86,24.86,0,0,0-4.76,1.93c-.82.15-1.64.38-2.46.57-1.29.31-2.58.64-3.87,1-2.56.67-5,1.42-7.6,2.15,0,0-.06.06,0,.09l0,0c2.52-.61,5-1.19,7.59-1.79l3.69-.89,1-.22a30.86,30.86,0,0,0-7.46,6.49,39.82,39.82,0,0,0-5.18,8.18c0,.07.07.14.11.07a39.82,39.82,0,0,1,6.27-8.23,1.51,1.51,0,0,1-.13.41c-.2.62-.4,1.24-.59,1.86-.39,1.23-.78,2.47-1.15,3.71a.08.08,0,0,0,.09,0l0,0c.44-1.2.86-2.41,1.29-3.62l.62-1.77.31-.92a.94.94,0,0,1,.1-.28,35.28,35.28,0,0,1,3.73-3.17,27.67,27.67,0,0,1,5.56-3.2,2.47,2.47,0,0,1-.11.54l-.3,1.43c-.21,1-.4,2-.59,3-.39,2-.65,4.09-1,6.12,0,.08.11.11.12,0,.48-2,1.08-4,1.54-6.1.22-1,.46-2,.67-3.07.1-.48.2-1,.29-1.44.06-.26.11-.53.15-.8.19-.08.37-.16.57-.23a16.44,16.44,0,0,1,8.73-1.2,8.53,8.53,0,0,1,6.32,5,.21.21,0,0,0,.27.13.21.21,0,0,0,.13-.27A8.08,8.08,0,0,0,455.34,273.75Z" transform="translate(-82.37 -54.63)"/><path class="cls-7" d="M439.29,282.4c-.31,1.33-.6,2.66-.89,4a30.31,30.31,0,0,0-.74,3.89c0,.05.07.05.08,0a29.49,29.49,0,0,0,.9-3.91c.25-1.32.51-2.63.77-4C439.43,282.35,439.3,282.32,439.29,282.4Z" transform="translate(-82.37 -54.63)"/><path class="cls-7" d="M429.13,285.79c-1.33.67-2.63,1.45-4,2-.08,0,0,.16.06.12,1.34-.67,2.73-1.27,4-2.07C429.2,285.82,429.17,285.77,429.13,285.79Z" transform="translate(-82.37 -54.63)"/><path class="cls-8" d="M454.85,259s-12.83.82-18.8-7.64-4.63-20.54-4.63-20.54,13.48,1.65,18.83,7.72S454.85,259,454.85,259Z" transform="translate(-82.37 -54.63)"/><path class="cls-7" d="M460.87,271.65c-.45-1.37-1-2.73-1.52-4.08s-1-2.56-1.59-3.83a78.94,78.94,0,0,0-3.85-7.56c-.9-1.56-1.87-3.08-2.88-4.57a5.28,5.28,0,0,0-.09-.68l-.18-1.19c-.13-.81-.27-1.62-.4-2.43-.3-1.78-.66-3.54-.95-5.31,0-.08-.15-.08-.13,0,.25,1.74.44,3.5.68,5.26.12.86.23,1.72.36,2.58l.15.93a95.24,95.24,0,0,0-6.34-8.23l-.94-1-.12-.31c-.1-.24-.19-.48-.28-.72-.19-.51-.37-1-.55-1.53-.37-1-.69-2-1-3a.07.07,0,0,0-.09,0l0,0c.26,1.06.53,2.1.84,3.15.15.5.32,1,.5,1.49l.09.24c-1.64-1.78-3.36-3.5-5.09-5.2a.06.06,0,0,0-.09,0,.07.07,0,0,0,0,.09,91.16,91.16,0,0,1,9.06,11.13,7.62,7.62,0,0,0-.94-.24c-1-.19-2-.33-3-.45-2.1-.27-4.18-.54-6.27-.87a.07.07,0,1,0,0,.13c2,.4,4,.85,5.93,1.3.94.21,1.88.39,2.81.58a18,18,0,0,1,2.25.64l.63.89q1.41,2.06,2.73,4.17l-1.31-.25c-1-.19-2-.37-3-.53-2-.32-3.91-.67-5.85-1.11a.07.07,0,0,0-.09,0s0,.08,0,.09h0c2,.47,3.9,1,5.85,1.52.94.24,1.89.48,2.83.69l1.43.31a2.82,2.82,0,0,0,.57.09q2.82,4.56,5.27,9.32c.72,1.4,1.4,2.81,2.07,4.23s1.27,2.94,1.91,4.42C460.5,272.09,461,272,460.87,271.65Z" transform="translate(-82.37 -54.63)"/><path class="cls-7" d="M447.74,242.17c-.25-1.22-.5-2.45-.77-3.66,0-.08-.15,0-.13,0,.24,1.2.47,2.4.69,3.61a34.26,34.26,0,0,0,.73,3.6h0A24.9,24.9,0,0,0,447.74,242.17Z" transform="translate(-82.37 -54.63)"/><path class="cls-7" d="M440.25,241.82a19.9,19.9,0,0,0-1.84-.78l-1-.38-.5-.2a2.3,2.3,0,0,1-.53-.23c-.11-.08-.17.09-.07.11a2.18,2.18,0,0,1,.55.22l.48.22.94.41a19.12,19.12,0,0,0,1.89.76C440.28,242,440.32,241.85,440.25,241.82Z" transform="translate(-82.37 -54.63)"/><path class="cls-8" d="M468,248.91s7.76-14.5,19.57-16.75,19,9.91,19,9.91-8.62,11-19.45,12.92S468,248.91,468,248.91Z" transform="translate(-82.37 -54.63)"/><path class="cls-7" d="M495.46,238.67a31.59,31.59,0,0,0-9.26.11l.53-.29,2.62-1.35c1.82-.94,3.65-1.95,5.54-2.71a.07.07,0,1,0,0-.14l-.05,0c-1.85.86-3.77,1.59-5.62,2.43-.92.44-1.84.88-2.74,1.35a20.36,20.36,0,0,0-1.8,1,32.1,32.1,0,0,0-7.5,2.5c.48-.54,1-1.07,1.47-1.61,1.11-1.2,2.19-2.47,3.39-3.57.07-.06,0-.15-.09-.09-1.24,1.12-2.54,2.17-3.74,3.33-.59.57-1.14,1.15-1.68,1.76-.28.3-.54.61-.8.93a31.15,31.15,0,0,0-15.84,21.38c0,.08.1.13.14,0a35.72,35.72,0,0,1,8.67-14.7,34.18,34.18,0,0,1,26.74-10.16.14.14,0,0,0,.14-.12.12.12,0,0,0-.12-.13Z" transform="translate(-82.37 -54.63)"/><path class="cls-9" d="M506.59,242.07s-8.62,11-19.46,12.92c-8.27,1.47-15.1-2.84-17.82-5l-.61-1s5.6-4.72,16.17-7.44S506.59,242.07,506.59,242.07Z" transform="translate(-82.37 -54.63)"/><path class="cls-7" d="M488.61,233.49a29.08,29.08,0,0,0-2.63,1.73,18.06,18.06,0,0,0-2.28,2.09c-.06.07,0,.15.11.1.78-.69,1.57-1.37,2.38-2a24.62,24.62,0,0,1,2.49-1.8C488.75,233.56,488.68,233.45,488.61,233.49Z" transform="translate(-82.37 -54.63)"/><path class="cls-7" d="M495.08,236l-1.32.52-1.32.55c-.09,0,0,.19.05.15l1.32-.54,1.31-.56a.06.06,0,0,0,0-.08A.06.06,0,0,0,495.08,236Z" transform="translate(-82.37 -54.63)"/><path class="cls-8" d="M466.43,267.16s2.07,14.36,12.89,19.39,24.05,0,24.05,0S498.13,255.45,466.43,267.16Z" transform="translate(-82.37 -54.63)"/><path class="cls-7" d="M495.87,277.22c-1-.11-2-.28-3-.47l-1.45-.27-.76-.15c-.29-.27-.58-.55-.87-.81a43.86,43.86,0,0,0-6.63-4.8,35.88,35.88,0,0,0-4-2h.21l3.56.16c2.37.11,4.74.16,7.12.31a.07.07,0,0,0,0-.13c-2.38-.16-4.74-.42-7.13-.63l-3.45-.3L477.7,268h-.45c-.62-.24-1.25-.46-1.87-.65a16.89,16.89,0,0,0-9.16-.5c-2.72.69-5.44,2.47-6.14,5.34,0,.1.13.16.17.07,1-2.4,3.67-3.6,6-4.1a14.34,14.34,0,0,1,4.89-.09,12.55,12.55,0,0,0,.55,2.17l.9,3c.61,2,1.29,4,1.88,6,0,0,.06.06.09,0s0,0,0,0c-.5-2-.92-4-1.41-6-.24-1-.49-2-.73-3a19.85,19.85,0,0,0-.54-2,27.08,27.08,0,0,1,2.8.66,44.84,44.84,0,0,1,4.9,1.79c.16,1,.39,2,.62,3,.3,1.27.63,2.53,1,3.77a.06.06,0,1,0,.12,0v-.23h0c-.24-1.18-.5-2.36-.75-3.53-.2-.94-.38-1.9-.59-2.85a42,42,0,0,1,3.95,2,5.72,5.72,0,0,0,.14.86c.08.5.16,1,.25,1.47.21,1.12.43,2.23.69,3.32a52.91,52.91,0,0,0,1.87,6.26,0,0,0,0,0,0,.07h0l.06.07c.05.06.12,0,.11-.06-.51-2.14-1.08-4.25-1.54-6.39-.23-1.07-.48-2.14-.69-3.21-.11-.54-.21-1.07-.31-1.61a1.17,1.17,0,0,0-.07-.48,47.41,47.41,0,0,1,4.21,2.81,45,45,0,0,1,6.45,5.89.1.1,0,0,0,.15-.13,37.14,37.14,0,0,0-2.57-3.15c-.55-.59-1.11-1.15-1.69-1.69h.19l1.52.23c1,.13,2,.23,3,.34C495.92,277.36,496,277.23,495.87,277.22Z" transform="translate(-82.37 -54.63)"/><path class="cls-7" d="M488.27,282.09h0l-.06-.37c0-.15-.12-.31-.14-.47h0c-.23-1-.41-1.92-.59-2.89,0-.08-.11-.06-.11,0a11.33,11.33,0,0,0,.83,3.75h.07Z" transform="translate(-82.37 -54.63)"/><path class="cls-7" d="M479.2,281.87a.06.06,0,0,0-.07-.06c-.3-1.28-.59-2.56-.85-3.84-.14-.67-.28-1.35-.4-2-.07-.36-.15-.73-.21-1.1a2.91,2.91,0,0,0-.24-.92.06.06,0,0,0-.09,0l0,0a7,7,0,0,0,.27,1.93c.14.7.28,1.41.43,2.1.32,1.42.67,2.83,1.07,4.23,0,.08.15.06.14,0Z" transform="translate(-82.37 -54.63)"/><path class="cls-7" d="M494.88,273.08c-2-.27-3.95-.56-5.93-.81a.07.07,0,1,0,0,.14c2,.29,4,.54,5.93.79C494.93,273.21,495,273.09,494.88,273.08Z" transform="translate(-82.37 -54.63)"/><path class="cls-8" d="M460.88,233.42s-6.61-29,24.59-40.78C485.47,192.64,494.11,230.85,460.88,233.42Z" transform="translate(-82.37 -54.63)"/><path class="cls-7" d="M467.62,217l.34-.2,1.76-1,3.61-2c2.39-1.33,4.74-2.72,7.13-4,.08,0,0-.15-.07-.11-2.39,1.3-4.84,2.53-7.26,3.81l-3.57,1.88-1.43.8a56.85,56.85,0,0,1,3.37-5.77c1.63-2.49,3.42-4.87,5.28-7.18a.11.11,0,0,0,0-.15.1.1,0,0,0-.14,0,48.69,48.69,0,0,0-7.22,8.84v-.31c0-.72.06-1.44.07-2.16,0-1.42-.05-2.84,0-4.26a.07.07,0,0,0-.13,0c-.06,1.39-.23,2.78-.3,4.18,0,.67-.07,1.37-.09,2.08a9.93,9.93,0,0,0,0,1.22c-.68,1-1.29,2.07-1.85,3.11a58,58,0,0,0-2.79,5.85c0-.72-.07-1.45-.11-2.16-.1-1.59-.29-3.18-.36-4.77a.07.07,0,1,0-.13,0v4.77c0,.79,0,1.59.1,2.37l.06.9a50.56,50.56,0,0,0-2.35,8,86.27,86.27,0,0,0-1.17,8.77h0a47.52,47.52,0,0,1,1.66-7.82c.38-1.37.79-2.73,1.23-4.09,1.3-.6,2.54-1.37,3.79-2s2.62-1.43,3.92-2.15c2.6-1.43,5.2-2.88,7.88-4.13.08,0,0-.15-.07-.11-2.72,1.22-5.46,2.39-8.12,3.74-1.33.67-2.64,1.38-3.94,2.1-1.09.62-2.19,1.23-3.23,1.93a28.35,28.35,0,0,1,1-2.69A59.7,59.7,0,0,1,467.62,217Z" transform="translate(-82.37 -54.63)"/><path class="cls-7" d="M465,210.32c0-.08-.14-.08-.13,0,.11,1.66.17,3.31.34,5a.07.07,0,0,0,.05.1.07.07,0,0,0,.1,0,.06.06,0,0,0,0-.06C465.29,213.62,465.11,212,465,210.32Z" transform="translate(-82.37 -54.63)"/><path class="cls-7" d="M480,215.86c-1.95.79-3.93,1.53-5.87,2.35-.05,0,0,.11,0,.09,2-.75,3.92-1.54,5.88-2.31C480.07,216,480,215.83,480,215.86Z" transform="translate(-82.37 -54.63)"/><path class="cls-7" d="M482.91,202.47a54.67,54.67,0,0,0-5.55,3,.08.08,0,0,0,0,.12.07.07,0,0,0,.11,0h0c1.81-1.05,3.66-2.07,5.53-3C483.06,202.54,483,202.43,482.91,202.47Z" transform="translate(-82.37 -54.63)"/><rect class="cls-10" x="355.09" y="241.59" width="44.99" height="47.43"/><rect class="cls-7" x="351.98" y="258.37" width="2.31" height="81.24"/><rect class="cls-7" x="400.62" y="258.37" width="2.31" height="81.24"/><rect class="cls-7" x="377.53" y="258.37" width="2.31" height="81.24"/><rect class="cls-7" x="353.13" y="285.98" width="48.64" height="6.56"/></g><g id="freepik--Cloud--inject-7"><path class="cls-8" d="M147.7,388.76a39.7,39.7,0,0,0,36.73,39.58v.11H409.18a46.65,46.65,0,0,0,4.36-93.09,78.59,78.59,0,0,0-152.31-24.58,46,46,0,0,0-20.85-4.93,46.63,46.63,0,0,0-46.55,43.76,38.71,38.71,0,0,0-6.45-.53A39.69,39.69,0,0,0,147.7,388.76Z" transform="translate(-82.37 -54.63)"/><g class="cls-11"><path d="M147.7,388.76a39.7,39.7,0,0,0,36.73,39.58v.11H409.18a46.65,46.65,0,0,0,4.36-93.09,78.59,78.59,0,0,0-152.31-24.58,46,46,0,0,0-20.85-4.93,46.63,46.63,0,0,0-46.55,43.76,38.71,38.71,0,0,0-6.45-.53A39.69,39.69,0,0,0,147.7,388.76Z" transform="translate(-82.37 -54.63)"/></g><path class="cls-8" d="M134.11,388.76a39.69,39.69,0,0,0,36.72,39.58v.11H395.58a46.65,46.65,0,0,0,4.36-93.09,78.58,78.58,0,0,0-152.3-24.58,46,46,0,0,0-20.85-4.93,46.63,46.63,0,0,0-46.55,43.76,38.83,38.83,0,0,0-6.46-.53A39.68,39.68,0,0,0,134.11,388.76Z" transform="translate(-82.37 -54.63)"/><path class="cls-4" d="M315.22,259.57V364.19H274.7V274.71A78.13,78.13,0,0,1,315.22,259.57Z" transform="translate(-82.37 -54.63)"/><polygon class="cls-4" points="253.66 309.57 171.53 309.57 212.59 360.58 253.66 309.57"/></g><g id="freepik--Files--inject-7"><rect class="cls-8" x="96.86" y="36.99" width="76.51" height="49.46"/><polygon class="cls-8" points="120.97 31.86 96.86 31.86 96.86 36.99 122.36 36.99 120.97 31.86"/><g class="cls-11"><rect x="96.86" y="36.99" width="76.51" height="49.46"/><polygon points="120.97 31.86 96.86 31.86 96.86 36.99 122.36 36.99 120.97 31.86"/></g><polygon class="cls-8" points="151.81 63.89 102.06 63.87 102.09 0 139.03 0.02 151.83 12.19 151.81 63.89"/><polygon class="cls-12" points="151.81 63.89 102.06 63.87 102.09 0 139.03 0.02 151.83 12.19 151.81 63.89"/><polygon class="cls-8" points="139.03 0.02 151.83 12.19 139.03 12.19 139.03 0.02"/><polygon class="cls-13" points="139.03 0.02 151.83 12.19 139.03 12.19 139.03 0.02"/><rect class="cls-4" x="106.93" y="10.73" width="27.67" height="1.64"/><rect class="cls-4" x="106.93" y="14.87" width="27.67" height="1.64"/><rect class="cls-4" x="106.93" y="19" width="27.67" height="1.64"/><rect class="cls-4" x="106.93" y="23.15" width="40.53" height="1.64"/><rect class="cls-4" x="106.93" y="27.29" width="40.53" height="1.64"/><rect class="cls-4" x="106.88" y="31.51" width="40.53" height="1.64"/><rect class="cls-4" x="106.88" y="35.65" width="40.53" height="1.64"/><rect class="cls-4" x="106.92" y="39.7" width="40.53" height="1.64"/><rect class="cls-4" x="106.92" y="43.84" width="40.53" height="1.64"/><rect class="cls-4" x="106.92" y="47.99" width="40.53" height="1.64"/><rect class="cls-4" x="106.91" y="52.13" width="40.53" height="1.64"/><rect class="cls-4" x="106.92" y="56.25" width="40.53" height="1.64"/><polygon class="cls-1" points="140.09 74.11 195.99 55.72 183.65 18.34 127.75 36.74 140.09 74.11"/><polygon class="cls-4" points="141.65 71.02 192.9 54.15 182.1 21.43 130.84 38.3 141.65 71.02"/><path class="cls-3" d="M221.22,101.59A5.87,5.87,0,1,0,225,94.18a5.88,5.88,0,0,0-3.75,7.41Z" transform="translate(-82.37 -54.63)"/><polygon class="cls-3" points="157.58 65.83 192.89 54.22 167.36 36.09 157.58 65.83"/><polygon class="cls-1" points="143.75 70.39 172.9 60.8 153.19 50.02 143.75 70.39"/><polygon class="cls-8" points="173.18 86.45 96.68 86.45 91.42 41.1 167.92 41.1 173.18 86.45"/><polygon class="cls-8" points="114.99 36.4 90.87 36.4 91.42 41.1 116.91 41.1 114.99 36.4"/><path class="cls-4" d="M192.74,122.36a5.58,5.58,0,0,0,5.17,5.56h31.61a6.55,6.55,0,0,0,.61-13.09,11.07,11.07,0,0,0-21.43-3.46,6.54,6.54,0,0,0-8.79,2.93,6.4,6.4,0,0,0-.68,2.53,5.55,5.55,0,0,0-6.49,5.5Z" transform="translate(-82.37 -54.63)"/><path class="cls-8" d="M218.19,104.2v14.7h-5.68V106.33A10.92,10.92,0,0,1,218.19,104.2Z" transform="translate(-82.37 -54.63)"/><polygon class="cls-8" points="138.76 64.27 127.21 64.27 132.99 71.45 138.76 64.27"/><path class="cls-7" d="M204.16,145.17c-.09-.66-.12-1-.12-1l1-.08a5.86,5.86,0,0,0,.13,1Z" transform="translate(-82.37 -54.63)"/><path class="cls-7" d="M231.33,173.13c-.7,0-1.42-.1-2.11-.17l.1-1c.67.07,1.37.12,2,.15Zm-4.23-.47c-.7-.13-1.4-.28-2.07-.46l.25-1q1,.26,2,.45Zm-4.11-1.1c-.67-.23-1.34-.5-2-.79l.43-.92a17.55,17.55,0,0,0,1.9.77Zm-3.89-1.8c-.61-.35-1.22-.73-1.81-1.14l.57-.82c.57.38,1.15.75,1.73,1.09Zm-3.51-2.41c-.55-.45-1.08-.93-1.59-1.43l.7-.72c.49.47,1,.94,1.52,1.37Zm-3-3c-.47-.53-.92-1.09-1.35-1.66l.8-.6c.41.54.86,1.09,1.3,1.59ZM210,160.92c-.37-.58-.75-1.19-1.1-1.81l.88-.5c.33.59.68,1.19,1.06,1.77Zm-2.09-3.7c-.31-.65-.6-1.3-.87-1.94l.92-.39c.27.63.55,1.26.86,1.9Zm-1.64-3.92c-.25-.69-.47-1.36-.67-2l1-.29c.19.63.41,1.28.65,2Zm-1.24-4c-.19-.75-.35-1.45-.47-2.07l1-.19c.12.6.27,1.28.46,2Z" transform="translate(-82.37 -54.63)"/><path class="cls-7" d="M233.49,173.15v-1h1l0,1Z" transform="translate(-82.37 -54.63)"/><polygon class="cls-7" points="146.24 121.14 145.86 120.2 152.02 117.81 145.76 115.69 146.09 114.73 154.96 117.73 146.24 121.14"/></g><g id="freepik--Character--inject-7"><path class="cls-14" d="M165.64,304.82c2.78,1,84.91,2.32,88,.46.38-.2,1.08-17.9,1.08-17.9,14.73-30.28,29.2-57.57,29.2-57.57l-57.73-2.28-23.44,49.64s-32.74,15.32-34,16.23C165.59,295.79,162.85,303.81,165.64,304.82Z" transform="translate(-82.37 -54.63)"/><path class="cls-1" d="M165.63,304.82c2.79,1,84.92,2.32,88,.46.38-.2,1.08-17.9,1.08-17.9,1.82-3.76,3.64-7.45,5.43-11.08l-52.55-9.5-4.89,10.36s-32.74,15.32-34,16.23C165.59,295.79,162.85,303.81,165.63,304.82Z" transform="translate(-82.37 -54.63)"/><path class="cls-6" d="M164.88,305.44c2.87,1,85.47,2.45,88.65.52,1.22-.72,1.81-6.53,2.5-21.08l-52.63-9S171.19,291.17,168,293.67,162.06,304.42,164.88,305.44Z" transform="translate(-82.37 -54.63)"/><path class="cls-7" d="M166.09,302.16c13.86-.1,69.73.8,83.43,1.76.12,0,.12.09,0,.09-13.72.39-69.59-1-83.43-1.63C165.83,302.37,165.83,302.16,166.09,302.16Z" transform="translate(-82.37 -54.63)"/><path class="cls-7" d="M173.33,290.79a11.13,11.13,0,0,1,8.22,3.52,10.78,10.78,0,0,1,3,7.45c0,.08-.16.08-.17,0a12.87,12.87,0,0,0-11-10.79.09.09,0,1,1,0-.18Z" transform="translate(-82.37 -54.63)"/><path class="cls-7" d="M197.71,278.86c5.53,0,11.93,2.09,15.29,6.68.13.17-.12.37-.28.28a76.5,76.5,0,0,0-15.11-6.28.34.34,0,0,1-.21-.44A.33.33,0,0,1,197.71,278.86Z" transform="translate(-82.37 -54.63)"/><path class="cls-7" d="M193.4,280.45c5.54,0,11.93,2.09,15.3,6.68.13.19-.13.37-.29.28a76.67,76.67,0,0,0-15.1-6.28.34.34,0,0,1-.22-.44A.34.34,0,0,1,193.4,280.45Z" transform="translate(-82.37 -54.63)"/><path class="cls-7" d="M189.09,282.05c5.54,0,11.94,2.08,15.3,6.68.13.18-.13.36-.29.27a77.27,77.27,0,0,0-15.1-6.28.33.33,0,0,1-.25-.41A.33.33,0,0,1,189.09,282.05Z" transform="translate(-82.37 -54.63)"/><path class="cls-7" d="M184.78,283.64c5.55,0,11.94,2.08,15.3,6.68.13.18-.12.36-.29.28a76.07,76.07,0,0,0-15.1-6.28.34.34,0,0,1-.25-.42A.35.35,0,0,1,184.78,283.64Z" transform="translate(-82.37 -54.63)"/><path class="cls-4" d="M246.26,290.71c6.21.13,6,9.78-.2,9.66S240,290.58,246.26,290.71Z" transform="translate(-82.37 -54.63)"/><path class="cls-7" d="M192.27,272.09c2.93,3.92,7.44,6.43,11.34,9.23a.68.68,0,0,0,.92-.23.6.6,0,0,0,.08-.21.15.15,0,0,0,.18-.12v0A29.06,29.06,0,0,0,200,266.48c-1.69-2.45-5.18-4.79-8.05-2.51S190.57,269.82,192.27,272.09Zm-.17-4.59c.65-6,6-1.29,7.19.57a29.09,29.09,0,0,1,2,3.76,83.37,83.37,0,0,1,3,8.27c-1.82-1.49-3.77-2.81-5.65-4.23-2.31-1.7-6.87-5.05-6.51-8.37Z" transform="translate(-82.37 -54.63)"/><path class="cls-7" d="M224.49,277.54c-.37-3.62-4.48-4.48-7.41-4a29.14,29.14,0,0,0-13.53,6.58.16.16,0,0,0,0,.21l0,0a.7.7,0,0,0,.24.94l.16.07c4.73.81,9.68,2.27,14.53,1.62C221.34,282.64,224.88,281,224.49,277.54Zm-13.09,3.63c-2.34-.34-4.64-.8-7-1.05a87,87,0,0,1,8-3.64,33.53,33.53,0,0,1,4-1.25c2.15-.46,9.27,0,5.44,4.74-2.06,2.55-7.66,1.62-10.47,1.2Z" transform="translate(-82.37 -54.63)"/><path class="cls-10" d="M264.43,270.65,207,261.94s32.48-63.53,44.69-84.87c9.5-16.6,35.5-17.42,48.13,2.48,16.9,26.57,30,51.47,37.52,65.27l13,1.12-2.82,21.28-43.3,9.7c-16.58,2-28.19-27.54-28.49-27.05C274.83,251.68,264.43,270.65,264.43,270.65Z" transform="translate(-82.37 -54.63)"/><path class="cls-7" d="M275.46,250c1.63-3.34,2.9-6.89,4.36-10.32s2.81-6.62,4.21-9.94c2.82-6.72,5.73-13.39,8.46-20.14,1.54-3.78,2.94-7.61,4.37-11.44,0-.09.19,0,.16,0q-1.66,5.43-3.48,10.81c.32-.63.65-1.24,1-1.85.92-1.65,1.87-3.27,2.83-4.9,0-.07.13,0,.1.06-.89,1.63-1.76,3.26-2.68,4.88-.45.81-1,1.61-1.44,2.41A253.3,253.3,0,0,1,281.45,239c-1.82,3.74-4,7.33-5.79,11.07C275.57,250.24,275.4,250.12,275.46,250Z" transform="translate(-82.37 -54.63)"/><path class="cls-7" d="M263.15,260.44c2.77-4.27,9.36-17.2,11.72-21.67,4.78-9.06,9.15-18.28,13.29-27.63,2.33-5.28,4.52-10.61,6.67-16h.06a304.4,304.4,0,0,1-11.33,28.38c-4.21,9.28-17.8,34.29-20.24,37C263.23,260.65,263.08,260.56,263.15,260.44Z" transform="translate(-82.37 -54.63)"/><path class="cls-7" d="M298.8,202.31c4.95,8.84,10,17.61,15,26.44q3.78,6.69,7.51,13.39c1.17,2.12,2.3,4.24,3.51,6.32a12.12,12.12,0,0,0,4.54,4.72,35.59,35.59,0,0,0,7.21,2.5c2.79.82,5.57,1.7,8.37,2.47a.11.11,0,0,1,.07.13.1.1,0,0,1-.13.07c-2.5-.67-5-1.25-7.54-1.87a64.65,64.65,0,0,1-6.85-1.84,11.19,11.19,0,0,1-5-3.51,41.4,41.4,0,0,1-3.56-5.93q-7.44-13.62-14.75-27.3c-2.78-5.2-5.52-10.39-8.32-15.56Z" transform="translate(-82.37 -54.63)"/><path class="cls-7" d="M265.76,262.59c-3.44-.63-7-.93-10.44-1.37l-10.43-1.35c-6.93-.91-30.56-4.67-32.34-5.27-.12,0-.08-.21,0-.22,1.69,0,17.11,2,20.62,2.52,6.94,1,13.84,2.26,20.75,3.42,2,.34,3.94.71,5.91,1.06s3.94.78,5.92,1C265.89,262.39,265.86,262.62,265.76,262.59Z" transform="translate(-82.37 -54.63)"/><path class="cls-14" d="M132.87,458.71c2.8,1,84.95.78,88-1.14.37-.22.76-17.92.76-17.92,14.17-30.53,28.11-58.09,28.11-58.09L192,380.33l-22.55,50.05S137,446.33,135.8,447.26C132.65,449.71,130.06,457.77,132.87,458.71Z" transform="translate(-82.37 -54.63)"/><path class="cls-1" d="M132.87,458.71c2.81,1,84.95.78,88-1.15.37-.2.76-17.91.76-17.91,1.75-3.79,3.51-7.52,5.22-11.16L174.15,420l-4.72,10.44S137,446.33,135.8,447.25C132.66,449.71,130.06,457.78,132.87,458.71Z" transform="translate(-82.37 -54.63)"/><path class="cls-6" d="M132.12,459.37c2.88,1,85.5.9,88.65-1.09,1.2-.75,1.68-6.56,2.11-21.14l-52.78-8.06S138.2,445,135,447.55,129.23,458.4,132.12,459.37Z" transform="translate(-82.37 -54.63)"/><path class="cls-7" d="M133.3,456.05c13.85-.34,69.74-.44,83.45.27.11,0,.11.08,0,.09-13.72.64-69.61.29-83.45-.12C133,456.28,133,456.06,133.3,456.05Z" transform="translate(-82.37 -54.63)"/><path class="cls-7" d="M140.3,444.62a11.11,11.11,0,0,1,8.28,3.37,10.77,10.77,0,0,1,3.1,7.4c0,.08-.16.08-.17,0a12.85,12.85,0,0,0-11.21-10.6c-.1,0-.17,0-.17-.09S140.2,444.53,140.3,444.62Z" transform="translate(-82.37 -54.63)"/><path class="cls-7" d="M164.45,432.2c5.55-.08,12,1.87,15.43,6.4.13.18-.13.37-.3.28a76.26,76.26,0,0,0-15.22-6,.35.35,0,0,1-.14-.47A.36.36,0,0,1,164.45,432.2Z" transform="translate(-82.37 -54.63)"/><path class="cls-7" d="M160.17,433.87c5.55-.08,12,1.87,15.43,6.4.13.18-.12.36-.29.28a76.71,76.71,0,0,0-15.26-6,.35.35,0,0,1-.28-.4.36.36,0,0,1,.4-.28Z" transform="translate(-82.37 -54.63)"/><path class="cls-7" d="M155.89,435.56c5.55-.08,12,1.87,15.43,6.4.13.18-.12.36-.28.28a77.28,77.28,0,0,0-15.24-6,.35.35,0,0,1-.12-.48A.34.34,0,0,1,155.89,435.56Z" transform="translate(-82.37 -54.63)"/><path class="cls-7" d="M151.61,437.21c5.55-.08,12,1.87,15.43,6.4.13.18-.12.36-.28.28a77.28,77.28,0,0,0-15.24-6,.35.35,0,0,1-.12-.48A.34.34,0,0,1,151.61,437.21Z" transform="translate(-82.37 -54.63)"/><path class="cls-4" d="M213.22,443.17c6.21,0,6.2,9.67,0,9.66S207,443.15,213.22,443.17Z" transform="translate(-82.37 -54.63)"/><path class="cls-7" d="M158.9,425.54c3,3.85,7.55,6.28,11.5,9a.68.68,0,0,0,.93-.24.76.76,0,0,0,.08-.21.15.15,0,0,0,.17-.11v-.05a29,29,0,0,0-5-14.17c-1.74-2.42-5.27-4.68-8.06-2.36S157.15,423.28,158.9,425.54Zm-.26-4.59c.55-6,6-1.41,7.2.42a29.35,29.35,0,0,1,2,3.75c1.27,2.65,2.14,5.44,3.14,8.2-1.87-1.46-3.83-2.75-5.74-4.13C163,427.5,158.34,424.27,158.64,421Z" transform="translate(-82.37 -54.63)"/><path class="cls-7" d="M191.26,430.39c-.43-3.61-4.57-4.4-7.48-3.83a29.14,29.14,0,0,0-13.41,6.82.16.16,0,0,0,0,.21l0,0a.69.69,0,0,0,.22.93.77.77,0,0,0,.19.08c4.75.73,9.73,2.1,14.55,1.36C188.16,435.56,191.66,433.81,191.26,430.39Zm-13.09,3.88c-2.34-.3-4.65-.73-7-.94a83.3,83.3,0,0,1,7.91-3.81,31.63,31.63,0,0,1,4-1.32c2.13-.51,9.26-.12,5.51,4.63C186.62,435.46,181,434.63,178.17,434.27Z" transform="translate(-82.37 -54.63)"/><path class="cls-10" d="M173.35,420.09l62.42-.46s32.65-82.17,36.45-86.23c2.56-2.75,19.73-5.8,40.27-10.3h.11c7.57-1.66,15.61-3.53,23.51-5.66,20.59-5.49,40.38-12.71,49.39-22.68,18.86-20.84,0-58.52,0-58.52H332.32s-1.32,16.4,2.74,26.44c0,0-39.08,5.74-72,16.42-18.65,6-35.31,13.69-41.77,22.78C211.85,315.2,173.35,420.09,173.35,420.09Z" transform="translate(-82.37 -54.63)"/><path class="cls-7" d="M180.4,410.73c7.23-.53,14.46-.72,21.71-.89s14.48-.25,21.72-.17c4.09,0,8.17.28,12.24.33a.1.1,0,1,1,0,.2c-3.64.09-7.28.36-10.93.46s-7.19.18-10.78.24c-7.24.12-14.48.16-21.73.24-4.08,0-8.15,0-12.23-.14a.13.13,0,0,1-.17-.1.13.13,0,0,1,.09-.17Z" transform="translate(-82.37 -54.63)"/><path class="cls-7" d="M358.39,244a4.55,4.55,0,0,0,.3.72.09.09,0,0,1,0,.12c.7,2.17,1,4.49,1.66,6.66a10.45,10.45,0,0,0,4,5.76c4.12,2.86,9.06,4.16,13.86,5.35.16,0,.11.26,0,.27a26.42,26.42,0,0,1-8.18-1.26,21.49,21.49,0,0,1-6.89-3.3,10.76,10.76,0,0,1-3.95-6,33.07,33.07,0,0,1-.7-3.83,29.21,29.21,0,0,1-.47-4.48.2.2,0,0,1,.26-.11Z" transform="translate(-82.37 -54.63)"/><path class="cls-7" d="M327.26,259.12a60.13,60.13,0,0,1,9.54,3.65l.15.06a4,4,0,0,1-.14-.57l-.11-.7c0-.23-.06-.48-.08-.72a2.17,2.17,0,0,1,0-.37h0a2.87,2.87,0,0,1-2-1.05,7.7,7.7,0,0,1-1.28-3c-.35-1.36-.68-2.73-1-4.1-.32-1.53-.6-3.07-.84-4.61a29.36,29.36,0,0,1-.53-4.57.22.22,0,0,1,.19-.24.22.22,0,0,1,.24.19c.35,1.41.51,2.86.78,4.29s.58,2.86.9,4.27.68,2.83,1.08,4.24c.34,1.24.69,3,2.14,3.47,3,.85,1.64-5.84,1.51-7.15-.3-3-.49-6.13-1-9.13a.1.1,0,0,1,.1-.11.11.11,0,0,1,.1.06c.64,2.77,1.38,5.47,1.88,8.27.24,1.37.41,2.75.55,4.14a6.23,6.23,0,0,1-.27,3.55,2.59,2.59,0,0,1-2,1.46l.09.32c.07.22.14.44.19.66s.11.45.16.68a1.64,1.64,0,0,1,.1.82.3.3,0,0,1-.15.18c1.28.56,2.55,1.11,3.81,1.69A34.1,34.1,0,0,1,346,267c.17.08,0,.32-.14.28a35.68,35.68,0,0,1-4.8-1.73c-1.59-.62-3.17-1.27-4.75-1.92a60.66,60.66,0,0,1-9.06-4.23.16.16,0,0,1-.09-.2A.14.14,0,0,1,327.26,259.12Z" transform="translate(-82.37 -54.63)"/><path class="cls-7" d="M240.44,380.55q5-12.19,10.44-24.16t11.64-23.69c1.76-3.39,3.39-6.82,6.93-8.66a26.22,26.22,0,0,1,5.1-1.81q3.1-.83,6.23-1.61c16.91-4.28,34-7.8,50.83-12.51,8.4-2.36,16.72-5,24.86-8.2,6.59-2.58,13.19-5.57,18.67-10.13a30.2,30.2,0,0,0,6.71-7.63c2.08-3.48,6.94-13-.26-41.69,0-.13.14-.22.17-.1,5.76,20.46,4.54,31.6,3.49,35.66a26,26,0,0,1-4.71,9.52c-4.25,5.44-10.25,9.21-16.41,12.15a171,171,0,0,1-22.78,8.53c-16.75,5.25-33.92,8.92-51,13-4.24,1-8.47,2-12.68,3.11-3.76,1-8.17,1.72-10.87,4.79a25.82,25.82,0,0,0-3.15,5.21c-1,1.95-2,3.91-3,5.87q-3,6-6,12.13-11.5,24.06-20.95,49c-.78,2.07-1.54,4.13-2.34,6.18-.06.16-.3.09-.25-.07C233.9,397,237.13,388.75,240.44,380.55Z" transform="translate(-82.37 -54.63)"/><path class="cls-7" d="M237.57,289c2.6-1.56,13.39-7.11,19.13-9.06,6-2,12.08-3.74,18.13-5.39q18.76-5.11,37.94-8.54,5.46-1,10.93-1.85a96.9,96.9,0,0,1,10.74-1.32.11.11,0,0,1,0,.21c-3.16.79-6.41,1.27-9.62,1.81s-6.33,1.11-9.48,1.73q-9.46,1.8-18.88,3.94c-12.41,2.82-24.85,5.9-37,9.74-6.45,2-16.19,6.73-21.63,9.17a.26.26,0,0,1-.35-.13A.26.26,0,0,1,237.57,289Z" transform="translate(-82.37 -54.63)"/><path class="cls-14" d="M278.27,310c-2.68-1.66-5.29-3.46-8.06-5-1.34-.73-2.74-1.36-4-2.22s-2.6-1.8-3.89-2.71a74.38,74.38,0,0,1-7.41-5.58,77.2,77.2,0,0,0-7.35-6.15c-.1-.08,0-.24.1-.17a70.7,70.7,0,0,0,8.22,4.75,47.87,47.87,0,0,1,5.56,3.48,33,33,0,0,1-3.16-2.62c-1.64-1.56-3.26-3.16-5-4.6-.09-.07,0-.23.11-.16a59,59,0,0,0,5.7,3.21c.28.14.56.3.83.45-.62-.45-1.24-.92-1.84-1.42-.86-.71-1.69-1.48-2.55-2.21-.4-.32-.78-.66-1.18-1l-.19-.14h0a1.52,1.52,0,0,1-1-.89.07.07,0,0,1,0-.09h.07c1.9,1,3.87,1.9,5.78,2.87s3.77,2.22,5.63,3.37a59.37,59.37,0,0,1,10.22,7.7.39.39,0,0,1-.06.56.38.38,0,0,1-.37.08,46,46,0,0,1-4.91-2.47l.26.21c1.66,1.37,3.19,2.9,4.76,4.37a.12.12,0,0,1-.12.19c-1.93-.81-3.92-1.58-5.78-2.55-.59-.32-1.17-.67-1.75-1l.69.49a43.53,43.53,0,0,1,3.4,3c2.37,2.15,5,4,7.53,6a.19.19,0,0,1-.07.26A.22.22,0,0,1,278.27,310Z" transform="translate(-82.37 -54.63)"/><path class="cls-14" d="M267.05,287.56c1.88,1,3.67,2.21,5.56,3.22a31,31,0,0,1,5.3,3.32c3.26,2.71,6,6,9.31,8.63a.09.09,0,1,1-.11.15c-3.3-2.65-7.12-4.49-10.62-6.85a36.55,36.55,0,0,1-4.76-4c-1.55-1.47-3.25-2.77-4.86-4.16a.18.18,0,0,1-.05-.24.16.16,0,0,1,.23-.05Z" transform="translate(-82.37 -54.63)"/><path class="cls-14" d="M242,292c3.61,1.65,7.38,2.9,11,4.59a25.41,25.41,0,0,1,4.79,3c1.61,1.27,3,2.73,4.75,3.9a.11.11,0,0,1,0,.15.13.13,0,0,1-.12,0,47.6,47.6,0,0,0-5.47-2.42,31.51,31.51,0,0,1-5.18-2.71c-3.28-2.16-6.38-4.54-9.87-6.38C241.76,292.09,241.89,291.89,242,292Z" transform="translate(-82.37 -54.63)"/><path class="cls-14" d="M353.73,180.23c-4.68,19.06-16,48.68-26.08,48.52-9.16-.14-29.59-16.38-38.15-21.71s10.65-26.28,15.55-22.89c7.6,5.26,19,14.64,20.91,14,2.4-.76,5.44-6.65,19.13-24C350.66,167,355.72,172.12,353.73,180.23Z" transform="translate(-82.37 -54.63)"/><path class="cls-14" d="M295.85,176.07c-4-1.42-8.55-3.39-13-3.3s-8.21,6-8.21,7.69,1.7,12.27,6.18,12.27,1.78-8.12,1.95-9.06.33-2.12,1.18-2,15.65,7.11,15.65,7.11Z" transform="translate(-82.37 -54.63)"/><path class="cls-14" d="M295.57,176.69c-.26,0-12.27-4.74-16.76-4.65s-8.2,6-8.2,7.69S272.3,192,276.79,192s1.77-8.11,1.94-9.06.34-2.12,1.19-2S295.57,188,295.57,188Z" transform="translate(-82.37 -54.63)"/><path class="cls-7" d="M278.31,191.43a5.27,5.27,0,0,0,.74-2.65,8.88,8.88,0,0,0-.16-2.86,14.69,14.69,0,0,1-.54-2.47,4.93,4.93,0,0,1,.62-2.37c.35-.63,1-.41,1.57-.21A23.23,23.23,0,0,1,283,182l2.56,1.31a28.53,28.53,0,0,1,2.6,1.43c.06,0,0,.15-.05.13a23.15,23.15,0,0,1-2.28-1l-2.57-1.18c-.8-.35-1.59-.76-2.39-1.1a2.61,2.61,0,0,0-1.18-.35c-.34.08-.52.92-.6,1.19a4.25,4.25,0,0,0,.17,2.42,13.84,13.84,0,0,1,.46,2.46,6.6,6.6,0,0,1-.19,2.34,9.51,9.51,0,0,1-1.07,1.92C278.39,191.6,278.25,191.51,278.31,191.43Z" transform="translate(-82.37 -54.63)"/><path class="cls-14" d="M309.78,188.46s-12.42-11.33-15-13.57c-5.18-4.52-27-13.44-30.08-13.77s-4.14,5.92,10.69,12.41c7.81,3.42,9.2,7.89,9.06,10.38s-2.52,7.05-6.68,7S270.88,184.69,267,184s-1.31,6.35,1.4,10.41a25.62,25.62,0,0,0,11.23,8.76c3.61,1.36,14.78,6.17,14.78,6.17Z" transform="translate(-82.37 -54.63)"/><path class="cls-7" d="M272.57,188c1.57,1.21,3.35,2.78,5.42,2.86s3.52-1.3,4.52-3a7.89,7.89,0,0,0,1.09-5.76,9.72,9.72,0,0,0-2.85-4.69,24,24,0,0,0-5.66-3.76c-.09,0,0-.17.08-.13,1.92.85,7.89,3.3,9.06,8.58a8.13,8.13,0,0,1-1.17,5.88c-.91,1.66-2.26,3.26-4.29,3.42-2.46.2-4.59-1.8-6.36-3.29C272.37,188,272.48,187.88,272.57,188Z" transform="translate(-82.37 -54.63)"/><path class="cls-8" d="M309.78,186.88,291.2,215.73s29.49,16.51,37.82,13.86S350,203,355.2,182s-7.69-12.95-12.7-6.47S326.66,197,326.06,196.85,309.78,186.88,309.78,186.88Z" transform="translate(-82.37 -54.63)"/><path class="cls-4" d="M301.73,199.37a36.08,36.08,0,0,1,3.51,1.47,37.19,37.19,0,0,1,6.89,4.55c.56.48,1.14,1,1.69,1.47l.21.18a129.46,129.46,0,0,1,9.58,10,128.67,128.67,0,0,0,9.55,9.85l-.51.44a128.4,128.4,0,0,1-9.56-9.82,132.88,132.88,0,0,0-9.88-10.26l-.22-.2c-.43-.39-.86-.77-1.32-1.13a35.16,35.16,0,0,0-6.74-4.46,26.1,26.1,0,0,0-3.58-1.51Zm-7.16,11.08c1.55,1.65,3,3.33,4.57,5,2.5,2.77,5,5.53,7.73,8.06l1.84.82a127.46,127.46,0,0,1-9.06-9.39c-1.37-1.53-2.74-3-4.14-4.59l-.27-.28-.27-.29-.21.32-.19.3Zm0,0c.31,0,.62,0,.94,0,1.56-.07,3.11-.22,4.65-.43a108.1,108.1,0,0,0,13.08-2.73,7.66,7.66,0,0,0,.82-.23c.72-.17,1.43-.36,2.12-.55a124.26,124.26,0,0,1,15.92-3.62,40.3,40.3,0,0,1,8.14-.32,31.57,31.57,0,0,1,7.33,1.41l.21-.46a30.54,30.54,0,0,0-7.51-1.4,41.78,41.78,0,0,0-8.21.39,127.11,127.11,0,0,0-16,3.77l-2.26.63-.83.21a90.76,90.76,0,0,1-12.85,2.67q-2.43.31-4.89.42h-.48ZM342,176.13a98.78,98.78,0,0,0,9.44,3.33l.29.1c.73.2,1.44.39,2.17.56.53.13,1.09.25,1.63.34a3.2,3.2,0,0,1,.14-.67c-.53-.1-1.07-.21-1.6-.34s-1.13-.28-1.7-.46a.89.89,0,0,1-.28-.07,99.16,99.16,0,0,1-9.63-3.39,4.65,4.65,0,0,1-.45.63Zm-15.91,20.65a31.82,31.82,0,0,0,4-1.36,41.32,41.32,0,0,0,7.15-3.91,128.41,128.41,0,0,0,12.67-10.37c.6-.52,1.18-1,1.77-1.55l.64-.56c1.3-1.13,2.6-2.24,3.93-3.33a1.31,1.31,0,0,0,0-.28c-1.44,1.14-2.84,2.33-4.24,3.53-.21.18-.43.37-.65.54-.55.49-1.1,1-1.66,1.45A125.17,125.17,0,0,1,337,191.2a39.73,39.73,0,0,1-7.16,3.83,31.35,31.35,0,0,1-3.09,1.07,3.57,3.57,0,0,1-.68.72Zm-22.05-1c.59.18,1.17.35,1.76.51a40.87,40.87,0,0,0,16.31,1.33,31.64,31.64,0,0,0,3.88-.75l-.62-.36a28.5,28.5,0,0,1-3.32.6,41.5,41.5,0,0,1-16.1-1.43c-.53-.14-1-.29-1.55-.48Z" transform="translate(-82.37 -54.63)"/><path class="cls-9" d="M312,225.79c6.71,2.74,13.31,4.73,16.75,3.87l.3-.08C337.37,226.91,350,203,355.21,182a33.08,33.08,0,0,0,1.2-8.62v-.32c0-.16,0-.33-.05-.5v-.2a3.11,3.11,0,0,0-.06-.44Z" transform="translate(-82.37 -54.63)"/><path class="cls-7" d="M301.58,212.88c.58-1,1.17-2,1.78-3,1.2-2,8.39-14.09,11.23-17.79a.11.11,0,0,1,.19.12c-2,4.22-9.45,16.11-10.7,18.05l-1.91,3c-.64,1-1.42,1.91-2.06,2.91-.07.1-.24,0-.17-.08C300.53,215,301,213.91,301.58,212.88Z" transform="translate(-82.37 -54.63)"/><path class="cls-8" d="M395.89,262.18c-.17.19-64.92-20.14-65.59-20.88-.94-1.1,9.78-61.42,17.57-71.36,1.67-2.12,12.48-6,18,0C387.19,193.81,396.52,261.48,395.89,262.18Z" transform="translate(-82.37 -54.63)"/><path class="cls-4" d="M332.39,226.22c.88.83,1.79,1.62,2.72,2.4a46.49,46.49,0,0,0,9.61,6.25l.51.24a34.33,34.33,0,0,0,3.9,1.54,28.68,28.68,0,0,0,7.93,1.56,34.45,34.45,0,0,0,8.05-.53,97.59,97.59,0,0,0,14.8-4.32l.74-.25h.11c3.15-1.1,6.33-2.16,9.55-3a1.66,1.66,0,0,1,.06.21c-3.22.88-6.39,2-9.52,3.09-.23.08-.48.16-.72.26a100.07,100.07,0,0,1-14.94,4.44,35.2,35.2,0,0,1-8.19.63,29.83,29.83,0,0,1-8.05-1.51,39.73,39.73,0,0,1-4.6-1.84l-.51-.24a46,46,0,0,1-9.15-6c-.84-.68-1.64-1.39-2.44-2.12C332.3,226.74,332.35,226.49,332.39,226.22Zm-1.67,10.19c.79.1,1.57.17,2.37.21a35.48,35.48,0,0,0,8.16-.61c1-.19,2.1-.43,3.11-.7l.87-.2c4-1,7.84-2.47,11.7-3.82a92.82,92.82,0,0,1,15.7-4.47c.54-.1,1.08-.18,1.65-.25a7.5,7.5,0,0,0,.81-.11,45.61,45.61,0,0,1,13.75.32,3.45,3.45,0,0,1,.78.14c0-.14-.06-.28-.1-.41l-.6-.13a46.48,46.48,0,0,0-14-.18l-.81.11c-.51.08-1,.16-1.5.26A106,106,0,0,0,356.85,231c-4,1.38-8.06,2.8-12.13,3.83q-.42.12-.87.21c-.87.21-1.76.4-2.65.56a35.57,35.57,0,0,1-8.05.53c-.78,0-1.55-.12-2.32-.23A1.62,1.62,0,0,0,330.72,236.41Zm6.53-33.93c1,0,2,0,3,.07a31.13,31.13,0,0,1,7.93,1.61A41.4,41.4,0,0,1,362,212.5a94.7,94.7,0,0,1,10.82,12.17c.43.56.85,1.1,1.3,1.64a1,1,0,0,0,.2.26c1.81,2.31,3.66,4.62,5.68,6.79a1.21,1.21,0,0,0,.21.24q1.65,1.77,3.45,3.39a32.09,32.09,0,0,0,6.79,4.69c.85.41,1.73.81,2.63,1.16-.05-.27-.11-.54-.16-.81a18.37,18.37,0,0,1-2.16-1,31.3,31.3,0,0,1-6.64-4.61c-1.11-1-2.18-2-3.19-3.11-.07-.07-.14-.16-.2-.23-2-2.11-3.8-4.38-5.6-6.66l-.2-.25-1.55-2a94,94,0,0,0-10.92-12.15,40.75,40.75,0,0,0-14.1-8.35,30.72,30.72,0,0,0-8.05-1.58,27.86,27.86,0,0,0-2.89,0A.63.63,0,0,0,337.25,202.48Zm7.1-25.4c2.33.89,4.69,1.72,7,2.41l.29.1c.73.2,1.44.39,2.17.56a36.38,36.38,0,0,0,8.17,1.06,28.55,28.55,0,0,0,4.13-.26c.68-.09,1.36-.23,2-.36s1.34-.23,2-.41,1.58-.39,2.34-.62a4.4,4.4,0,0,0-.31-.56c-.72.21-1.45.39-2.17.55-1.33.28-2.67.48-4,.72a28.51,28.51,0,0,1-4,.26,37.85,37.85,0,0,1-8-1c-.57-.14-1.13-.28-1.7-.45A1.29,1.29,0,0,1,352,179c-2.53-.7-5-1.6-7.47-2.54A3.73,3.73,0,0,1,344.35,177.08Zm-3.78,12c3.26-2.5,6.31-5.25,9.38-8,.6-.52,1.18-1,1.77-1.55l.64-.56A92,92,0,0,1,362.74,171c.83-.54,1.67-1.07,2.53-1.56l-.22-.2c-.82.48-1.65,1-2.45,1.54a107,107,0,0,0-10.52,8.19c-.21.18-.43.37-.65.54-.55.49-1.09,1-1.66,1.45-3,2.6-5.93,5.23-9.06,7.63A5.57,5.57,0,0,1,340.57,189.11Z" transform="translate(-82.37 -54.63)"/><path class="cls-14" d="M371.34,189.23c-3.32,19.44-19.63,55.79-30.26,59.2-12.3,4-55-9.68-63.43-15.82-3.33-2.45,14.45-24,18.61-22.44,17.39,6.4,32.81,9.68,35.05,8.16,3.44-2.34,17.47-22.44,26.6-34.92C369.38,167.75,372.83,180.52,371.34,189.23Z" transform="translate(-82.37 -54.63)"/><path class="cls-14" d="M278.78,233.19c-1.9-.68-15-10.18-18.84-14.64A56.85,56.85,0,0,1,249.87,203c-3.88-9.06-5.71-15.66-4.77-18.62,1.08-3.44,1.39-4,10.44,11,5.12,8.49,10,9.45,14.23,9.37a65,65,0,0,1,30.05,6.71S286.08,235.8,278.78,233.19Z" transform="translate(-82.37 -54.63)"/><path class="cls-7" d="M257.13,169.46,279,197.65a1.12,1.12,0,0,1,.06,1.59,1,1,0,0,1-.53.32l-15.49,5a2.64,2.64,0,0,1-2.66-.91l-21.87-28.19a1.13,1.13,0,0,1-.06-1.59,1.09,1.09,0,0,1,.53-.32l15.5-5A2.67,2.67,0,0,1,257.13,169.46Z" transform="translate(-82.37 -54.63)"/><path class="cls-15" d="M255.81,168.12l-15.5,5a1.12,1.12,0,0,0-.79,1.38,1.26,1.26,0,0,0,.32.53l21.86,28.19a2.64,2.64,0,0,0,2.67.9l15.49-5a1.14,1.14,0,0,0,.79-1.4,1.17,1.17,0,0,0-.32-.52L258.47,169A2.67,2.67,0,0,0,255.81,168.12Zm22.87,28.52c.58.75.4,1.54-.37,1.8l-13.86,4.46A2.43,2.43,0,0,1,262,202l-20.4-26.2c-1.17-1.51-.6-1.79.18-2l2.77-.9a.67.67,0,0,1,.59.28l.06.08a.74.74,0,0,0,1,.26l6.43-2c.36-.11.65-.21.28-.67l-.06-.09c-.16-.2-.15-.4,0-.45l2.78-.9c.77-.25,1.56-.25,2.62,1.14Z" transform="translate(-82.37 -54.63)"/><path class="cls-7" d="M249.89,171.56l-1.75.56a.18.18,0,0,1-.19-.06h0a.08.08,0,0,1,0-.11v0l1.76-.56a.18.18,0,0,1,.18.06h0a.11.11,0,0,1,0,.12Z" transform="translate(-82.37 -54.63)"/><line class="cls-16" x1="178.34" y1="145.71" x2="178.29" y2="145.73"/><path class="cls-4" d="M258.31,170.42l20.37,26.17c.58.75.41,1.54-.37,1.8l-13.86,4.46A2.45,2.45,0,0,1,262,202L241.6,175.8c-1.17-1.51-.6-1.79.18-2l2.77-.9a.67.67,0,0,1,.59.28l.06.08a.74.74,0,0,0,1,.26l6.43-2c.36-.11.65-.21.28-.67l-.06-.09c-.16-.2-.15-.4,0-.45l2.78-.9C256.46,169,257.25,169,258.31,170.42Z" transform="translate(-82.37 -54.63)"/><path class="cls-8" d="M258.31,170.42l1.52,2-16.67,5.36-1.56-1.93c-1.17-1.51-.6-1.79.18-2l2.78-.9a.64.64,0,0,1,.58.28l.06.08a.74.74,0,0,0,1,.26l6.43-2c.36-.11.65-.21.28-.67l-.06-.09c-.16-.2-.15-.4,0-.45l2.78-.9C256.46,169,257.25,169,258.31,170.42Z" transform="translate(-82.37 -54.63)"/><g id="freepik--u5Zjqx--inject-7"><path class="cls-4" d="M244.62,173.59h0a.47.47,0,0,0-.33,0,.23.23,0,0,0-.18.17h0v-.07a.1.1,0,0,0,.08-.06h.37Z" transform="translate(-82.37 -54.63)"/><path class="cls-4" d="M244.19,173.85h-.07a.16.16,0,0,1,.11-.13.36.36,0,0,1,.32,0h0a.28.28,0,0,0-.22,0A.15.15,0,0,0,244.19,173.85Z" transform="translate(-82.37 -54.63)"/><path class="cls-4" d="M244.52,173.79v.05h-.12a.09.09,0,0,0-.06.06h-.07C244.28,173.79,244.39,173.79,244.52,173.79Z" transform="translate(-82.37 -54.63)"/><path class="cls-4" d="M244.48,173.89v.05h-.06Z" transform="translate(-82.37 -54.63)"/></g><path class="cls-4" d="M242,174.49a.08.08,0,0,1,0-.11v0a.24.24,0,0,1,.2.06.11.11,0,0,1,0,.13h0A.16.16,0,0,1,242,174.49Z" transform="translate(-82.37 -54.63)"/><path class="cls-4" d="M242.36,174.38a.07.07,0,0,1,0-.11s0,0,0,0a.21.21,0,0,1,.18.06c.05.06,0,.12,0,.13A.16.16,0,0,1,242.36,174.38Z" transform="translate(-82.37 -54.63)"/><path class="cls-4" d="M242.71,174.27a.07.07,0,0,1,0-.11l0,0a.19.19,0,0,1,.18.06v.13A.16.16,0,0,1,242.71,174.27Z" transform="translate(-82.37 -54.63)"/><path class="cls-4" d="M243.06,174.16a.08.08,0,0,1,0-.09.08.08,0,0,1,0,0,.22.22,0,0,1,.19.06.07.07,0,0,1,0,.11,0,0,0,0,1,0,0A.18.18,0,0,1,243.06,174.16Z" transform="translate(-82.37 -54.63)"/><path class="cls-4" d="M243.4,174.05a.08.08,0,0,1,0-.11s0,0,0,0a.17.17,0,0,1,.18.06.07.07,0,0,1,0,.11l0,0A.21.21,0,0,1,243.4,174.05Z" transform="translate(-82.37 -54.63)"/><path class="cls-4" d="M256.51,170.1l-.89.3-.29-.38.9-.29Zm-.88.24.81-.27-.22-.28-.82.26Z" transform="translate(-82.37 -54.63)"/><polygon class="cls-4" points="173.66 115.25 173.09 115.44 173.28 115.68 173.85 115.5 173.66 115.25"/><polygon class="cls-4" points="174.16 115.37 174.09 115.39 173.93 115.2 174.01 115.17 174.16 115.37"/><path class="cls-8" d="M255,188.08a2.44,2.44,0,0,0,2.37.77h0l8.15-2.9a1.22,1.22,0,0,0,.84-1.5,1.25,1.25,0,0,0-.35-.57,2.92,2.92,0,0,0-2.75-.93,4.84,4.84,0,0,0-4.84-1.39,1.94,1.94,0,0,0-1.4,2.36,1.42,1.42,0,0,0,.07.22,2.06,2.06,0,0,0-.89.11,1.19,1.19,0,0,0-.86,1.46,1.1,1.1,0,0,0,.32.55l-.26.07a1,1,0,0,0-.4,1.75Z" transform="translate(-82.37 -54.63)"/><g class="cls-11"><path d="M255,188.08a2.44,2.44,0,0,0,2.37.77h0l8.15-2.9a1.22,1.22,0,0,0,.84-1.5,1.25,1.25,0,0,0-.35-.57,2.92,2.92,0,0,0-2.75-.93,4.84,4.84,0,0,0-4.84-1.39,1.94,1.94,0,0,0-1.4,2.36,1.42,1.42,0,0,0,.07.22,2.06,2.06,0,0,0-.89.11,1.19,1.19,0,0,0-.86,1.46,1.1,1.1,0,0,0,.32.55l-.26.07a1,1,0,0,0-.4,1.75Z" transform="translate(-82.37 -54.63)"/></g><path class="cls-8" d="M254.49,188.25a2.45,2.45,0,0,0,2.36.78h0l8.16-2.89a1.22,1.22,0,0,0,.84-1.5,1.27,1.27,0,0,0-.36-.57,2.86,2.86,0,0,0-2.75-.93,4.8,4.8,0,0,0-4.83-1.4,2,2,0,0,0-1.4,2.38l.06.2a2.37,2.37,0,0,0-.88.11,1.21,1.21,0,0,0-.87,1.46,1.37,1.37,0,0,0,.32.56l-.25.07a1,1,0,0,0-.71,1.23A1,1,0,0,0,254.49,188.25Z" transform="translate(-82.37 -54.63)"/><polygon class="cls-8" points="180.13 132.98 178.59 133.53 176.88 131.47 178.43 130.91 180.13 132.98"/><polygon class="cls-8" points="180.67 132.8 178.05 133.72 180.3 134.4 180.67 132.8"/><g class="cls-17"><polygon points="180.13 132.98 178.59 133.53 176.88 131.47 178.43 130.91 180.13 132.98"/><polygon points="180.67 132.8 178.05 133.72 180.3 134.4 180.67 132.8"/></g><path class="cls-14" d="M267.67,204.64c4.37.06-9.84-8.81-10.07-13.79s4.63-3.41,8.46-.6c13.27,9.76,23.27,9.27,30,18.6S267.67,204.64,267.67,204.64Z" transform="translate(-82.37 -54.63)"/><path class="cls-7" d="M280.87,198.57a35.31,35.31,0,0,1,8.16,3.2,21.09,21.09,0,0,1,5.91,5.54c.07.09-.06.22-.13.12-3.58-4.4-8.89-6.61-14-8.73a.07.07,0,0,1,0-.1A.09.09,0,0,1,280.87,198.57Z" transform="translate(-82.37 -54.63)"/><path class="cls-8" d="M330.39,217.13c-3.39.92-27.07-5.58-27.07-5.58L290,243.77s41.28,9.61,50.86,6.27,24.57-36.08,29.46-55.11c4.55-17.87-1.52-29.53-14.28-11C356.05,183.94,332.21,216.65,330.39,217.13Z" transform="translate(-82.37 -54.63)"/><path class="cls-4" d="M322.93,216.31c.24.24.46.5.68.75a111.07,111.07,0,0,0,11.5,11.56,46.49,46.49,0,0,0,9.61,6.25l.51.24a34.33,34.33,0,0,0,3.9,1.54,28.33,28.33,0,0,0,3.15.9c-.09.15-.19.29-.27.45-1-.23-2-.51-3-.84a37.29,37.29,0,0,1-4.59-1.85l-.52-.23a46,46,0,0,1-9.15-6,109.42,109.42,0,0,1-11.61-11.58l-1.36-1.45Zm-22,1.1a96.6,96.6,0,0,0,9.86,9.65A43.83,43.83,0,0,0,325,235.11a30.37,30.37,0,0,0,8.06,1.51,35.48,35.48,0,0,0,8.16-.61c1-.19,2.1-.43,3.11-.7l.87-.2c3.52-.93,7-2.15,10.38-3.36.07-.12.13-.24.19-.36-3.65,1.27-7.33,2.56-11.07,3.48q-.42.12-.87.21c-.87.21-1.76.4-2.65.56a35.57,35.57,0,0,1-8.05.53,30.21,30.21,0,0,1-7.93-1.55,44.27,44.27,0,0,1-14-8.05,97.79,97.79,0,0,1-10-9.86Zm41.21-14.66a30.47,30.47,0,0,1,6,1.41A41.4,41.4,0,0,1,362,212.5c.63.56,1.23,1.13,1.83,1.74l.27-.65c-.55-.54-1.1-1-1.67-1.56a40.75,40.75,0,0,0-14.1-8.35,30.43,30.43,0,0,0-5.88-1.37ZM358.26,181a32.2,32.2,0,0,0,3.8.26,28.55,28.55,0,0,0,4.13-.26c.68-.09,1.36-.23,2-.36s1.34-.23,2-.41c.4-.1.8-.19,1.2-.31a2.55,2.55,0,0,0-.13-.61l-1.21.29c-1.33.28-2.67.48-4,.72a28.51,28.51,0,0,1-4,.26,30.12,30.12,0,0,1-3.29-.22,6.11,6.11,0,0,1-.47.64Z" transform="translate(-82.37 -54.63)"/><path class="cls-1" d="M310.43,247.86c1,.18,2,.36,3,.52" transform="translate(-82.37 -54.63)"/><path class="cls-1" d="M325.5,216.78c-.91-.15-1.89-.33-2.9-.53" transform="translate(-82.37 -54.63)"/><path class="cls-7" d="M341.37,249c8.06-4.13,18-25.75,19.93-30,1.23-2.71,2.34-5.47,3.44-8.24,2.21-5.55,4.23-11.16,6.15-16.79a.08.08,0,0,1,.11-.05s0,0,0,.05a133.36,133.36,0,0,1-3.81,12.91,49.22,49.22,0,0,0,2.64-4.91.08.08,0,0,1,.11,0,.09.09,0,0,1,0,.07,27.89,27.89,0,0,1-3.07,5.69c-1.51,4.26-3.22,8.46-5.13,12.54-.54,1.18-12.08,27.66-21.06,30.12-3.13.85-13.86.08-16.11-.44a.08.08,0,1,1,0-.15C327.69,249.78,338.5,250.49,341.37,249Z" transform="translate(-82.37 -54.63)"/><path class="cls-7" d="M298.92,239.84c.39-1.11.8-2.22,1.22-3.33.86-2.21,5.78-15.4,7.91-19.43a.1.1,0,0,1,.19.08c-1.21,4.51-6.46,17.5-7.35,19.64-.44,1.09-.89,2.19-1.36,3.28s-1,2.14-1.52,3.24c-.05.1-.22.06-.18-.06C298.25,242.11,298.52,241,298.92,239.84Z" transform="translate(-82.37 -54.63)"/><path class="cls-7" d="M303.31,211.61c2,.09,19.68,4.2,23.6,5.09a8.08,8.08,0,0,0,2.89.39,4.2,4.2,0,0,0,2.32-1.73c1.27-1.46,15.1-19.77,16.11-20.68.37-.34.68-.4.31.17-.61,1-14.09,19.13-15.31,20.51s-2.21,2.71-4.12,2.64c-.83,0-24.73-5.4-25.91-5.89C303,212.05,303,211.59,303.31,211.61Z" transform="translate(-82.37 -54.63)"/><path class="cls-14" d="M349.78,180.94c3.6-.07,11.63-6,12.8-11.45.08-.38-1.43-3.63-3.08-7.66-1-2.46-2-5.22-2.82-7.79-.15-.54-15,8.79-15,8.79a43,43,0,0,1,4.54,9.44,6.86,6.86,0,0,1,.2,1.1v.18C346.71,175.66,345.93,181,349.78,180.94Z" transform="translate(-82.37 -54.63)"/><path class="cls-7" d="M346.4,173.37v.18a13.87,13.87,0,0,0,1.69-.41c9.47-3,8.41-15.76,8-18.93-2.75,1.28-14.45,8.61-14.45,8.61a42.83,42.83,0,0,1,4.54,9.45A6.94,6.94,0,0,1,346.4,173.37Z" transform="translate(-82.37 -54.63)"/><path class="cls-14" d="M353.67,133c3.3,5.33,4.68,22.89,1.55,27.71-4.54,7-14.19,10.07-20.69,4.15-6.3-5.78-7.7-28.69-4-33.31C336,124.78,348.78,125.15,353.67,133Z" transform="translate(-82.37 -54.63)"/><path class="cls-7" d="M339.7,147.61c0-.05.09,0,.1.09.06,1.19.34,2.54,1.43,2.84v.07C339.91,150.56,339.57,148.77,339.7,147.61Z" transform="translate(-82.37 -54.63)"/><path class="cls-7" d="M340.65,146.31c1.89-.3,2.37,3.51.61,3.79S339.07,146.61,340.65,146.31Z" transform="translate(-82.37 -54.63)"/><path class="cls-7" d="M333.22,148.41s-.09.07-.08.11c.18,1.18.19,2.55-.83,3v.07C333.59,151.32,333.56,149.49,333.22,148.41Z" transform="translate(-82.37 -54.63)"/><path class="cls-7" d="M332,147.31c-1.9.09-1.59,3.91.18,3.82S333.6,147.23,332,147.31Z" transform="translate(-82.37 -54.63)"/><path class="cls-7" d="M341.94,144.39a13,13,0,0,1-1.53-.33,2.47,2.47,0,0,1-1.5-.65.78.78,0,0,1,0-1,2,2,0,0,1,2-.46,3,3,0,0,1,1.84,1,.86.86,0,0,1-.05,1.22A.85.85,0,0,1,341.94,144.39Z" transform="translate(-82.37 -54.63)"/><path class="cls-7" d="M330.29,145.6a15.29,15.29,0,0,0,1.46-.58,2.49,2.49,0,0,0,1.38-.88.8.8,0,0,0-.16-1,2,2,0,0,0-2-.13,2.89,2.89,0,0,0-1.65,1.34.87.87,0,0,0,.33,1.18A.89.89,0,0,0,330.29,145.6Z" transform="translate(-82.37 -54.63)"/><path class="cls-7" d="M342.42,158.17c-.25.31-.48.73-.9.81a3,3,0,0,1-1.3-.14m0,.07a1.58,1.58,0,0,0,1.57.45,1.24,1.24,0,0,0,.79-1.15.1.1,0,0,0-.16,0Z" transform="translate(-82.37 -54.63)"/><path class="cls-7" d="M340.75,154.8a4,4,0,0,1-2.46,2.11,5.3,5.3,0,0,1-1.43.25h-.54a.31.31,0,0,1-.27-.23h0a.24.24,0,0,1,0-.12h0v-.14c-.14-.9-.22-2.29-.22-2.29-.31.21-1.91,1.18-1.94.69a60.39,60.39,0,0,1,.06-12.32c0-.13.22-.12.23,0,.38,3.79.1,7.61.43,11.42a6.89,6.89,0,0,1,1.82-.81c.13,0,.11,2.69.2,3.09h0a5.61,5.61,0,0,0,4-1.79S340.81,154.66,340.75,154.8Z" transform="translate(-82.37 -54.63)"/><path class="cls-7" d="M337.34,156.67a4.73,4.73,0,0,0,2.08,1.25,2.17,2.17,0,0,0,1.31-.08c.92-.36.84-1.23.56-1.94a5,5,0,0,0-.55-1.08A6.13,6.13,0,0,1,337.34,156.67Z" transform="translate(-82.37 -54.63)"/><path class="cls-18" d="M339.42,157.87a2.17,2.17,0,0,0,1.31-.08c.92-.36.84-1.23.56-1.94A2.23,2.23,0,0,0,339.42,157.87Z" transform="translate(-82.37 -54.63)"/><path class="cls-7" d="M356.53,148.73c-3.23.33-5.21-7.59-5.21-7.59s-4.26-.53-7.23-7.45c0,0-1,7.74-14.36,9.29a11.45,11.45,0,0,1-.68-7,47.37,47.37,0,0,0-1.6,7.82s-5.71-10.07,2.62-16.11c3.31-2.4,9-3.43,18.47-1.27,0,0,.42-5.48,1.55-5s.4,5.63.4,5.63,3.45-2,4.26-1.42-2.66,2.35-2.66,2.35a7.59,7.59,0,0,1,6.77,7.27C359.4,141.42,358.13,148.62,356.53,148.73Z" transform="translate(-82.37 -54.63)"/><path class="cls-7" d="M351,128.07a7,7,0,0,1,8.26,4,12.91,12.91,0,0,1,.56,5.82,25.11,25.11,0,0,1-1.49,6c0,.11-.2,0-.16-.08a19,19,0,0,0,1-5.54,16.81,16.81,0,0,0-.42-5.38,6.66,6.66,0,0,0-7.73-4.65.1.1,0,0,1-.06-.13Z" transform="translate(-82.37 -54.63)"/><path class="cls-7" d="M337.08,124.07a27,27,0,0,1,6.93.82,19.56,19.56,0,0,1,6.17,2.42c.09.06,0,.21-.08.16A35,35,0,0,0,337.68,125c-3.92-.17-8.26.88-10.34,4.53,0,.06-.13,0-.1,0C329,125.74,333.22,124.17,337.08,124.07Z" transform="translate(-82.37 -54.63)"/><path class="cls-15" d="M342.49,153.47a5.61,5.61,0,0,1-5.66-5.52h0a5.59,5.59,0,1,1,5.66,5.52Zm-4.9-5.53a4.84,4.84,0,1,0,4.79-4.9h0a4.81,4.81,0,0,0-4.78,4.9Z" transform="translate(-82.37 -54.63)"/><path class="cls-15" d="M330.8,155.13c-2.26.34-4.48-1.88-4.92-4.93a6.69,6.69,0,0,1,.61-4,3.49,3.49,0,0,1,4.57-1.85,3.37,3.37,0,0,1,1.33,1,6.69,6.69,0,0,1,1.74,3.69c.41,2.89-.9,5.51-3,6Zm-3.62-8.62a6,6,0,0,0-.52,3.58c.38,2.65,2.21,4.57,4.07,4.31s3-2.65,2.68-5.29a6,6,0,0,0-1.52-3.28,3,3,0,0,0-2.56-1l-.27.05A3,3,0,0,0,327.18,146.51Z" transform="translate(-82.37 -54.63)"/><path class="cls-15" d="M337.12,148.56l.39-.63c-.94-.59-3-1.25-4.16.39l.61.42C335,147.27,337,148.51,337.12,148.56Z" transform="translate(-82.37 -54.63)"/><path class="cls-15" d="M362,146.4l.61-.44c-.2-.28-2-2.77-3.72-2.79s-11.36,2.35-11.78,2.45l.18.72c2.8-.68,10.36-2.44,11.58-2.42S361.48,145.72,362,146.4Z" transform="translate(-82.37 -54.63)"/><path class="cls-14" d="M353.1,148s2.48-6.38,5.28-5.62,1.86,9.34-.78,11.12a3,3,0,0,1-4.24-.49,1.13,1.13,0,0,0-.1-.13Z" transform="translate(-82.37 -54.63)"/><path class="cls-7" d="M358.05,144.82s.07,0,0,.07c-1.84,1.32-2.45,3.47-2.72,5.6a1.67,1.67,0,0,1,2.09-1.1l.23.1a.05.05,0,0,1,.06.06.06.06,0,0,1-.06.06,1.88,1.88,0,0,0-1.84,1.12,9.18,9.18,0,0,0-.56,1.85c-.05.2-.4.19-.38,0v-.05C354.2,149.88,355.37,145.76,358.05,144.82Z" transform="translate(-82.37 -54.63)"/><path class="cls-7" d="M345.14,173.2h.05c-.44,3.38-1.26,11.25,3.92,11.07,2.09-.06,4.07-1.28,5.74-2.49a29.38,29.38,0,0,0,4.69-4.3,44.08,44.08,0,0,0,4.48-5.61c.06-.09.18,0,.12.1-1.37,2-2.54,4.09-4.09,5.95a26.45,26.45,0,0,1-5,4.77c-1.79,1.24-3.9,2.44-6.09,2.39a4.15,4.15,0,0,1-4-3.52A19.64,19.64,0,0,1,345.14,173.2Z" transform="translate(-82.37 -54.63)"/></g></svg>